<svg width="46" height="29" viewBox="0 0 46 29" fill="none" xmlns="http://www.w3.org/2000/svg">
<path fill-rule="evenodd" clip-rule="evenodd" d="M14.5 13.4H14.2L14.1 13.3H13.9V13.3H13.8L13.7 13.2H13.6V13.1L13.5 13V13L13.3 12.9H13.2V12.8V12.7L13.1 12.6H13L12.8 12.5L12.5 12.4L12.2 12.3H12L11.8 12.2H11.6L11.3 12.1L10.7 12H10.4L10 11.9L9.5 12H9.1H8.7L7.6 12.3H7.1V12.4L6.7 12.3H6.5V12.3H6.3L6.1 12.2V12.2V12.1L5.9 12.2H5.8H5.7L5.5 12.1L5.3 12V12V11.9V11.8L5.1 11.6V11.6V11.6H5L5.1 11.5L4.9 11.3V11.3L4.7 11.1H4.6V11H4.5L4.4 10.9V10.8L4.2 10.6L4.1 10.5L4 10.4V10.2H3.9L3.7 10H3.6L3.5 9.9H3.4L3.2 9.7L3.1 9.6V9.6L3.2 9.7V9.7H3.3H3.2L3.1 9.6L3 9.4V9.2V9.2L3.1 9.1V9.1L3 9.2V9.2V9.3V9.4V9.4L3.1 9.5V9.5V9.4V9.3V9.3V9.4V9.3V9.3V9.2V9.1V9.1V8.9L3 8.8L2.9 8.6H2.8V8.5V8.6L2.5 8.4V8.3L2.4 8.2V8.1L2.3 8H2.2V8L2 7.9V7.8L1.9 7.7H1.8V7.6V7.5L1.7 7.4V7.3L1.6 7.2L1.5 7L1.4 6.9L1.3 6.6L1.1 6.4V6.3H1V6.2L0.9 6.1L0.8 6V6V5.9H0.7L0.6 5.6L0.5 5.3L0.4 5.2V5.2V5.1V5L0.3 4.8V4.7V4.5L0.2 4.4V4.4L0.1 4.3L0 4.2L0.1 4.1L0 4V3.9V3.9V3.8V3.8V3.7H0.1V3.6H0.2H0.3H0.2V3.7H0.3L0.4 3.8H0.3H0.2L0.3 3.9H0.4V3.9V3.9V3.9H0.5L0.4 4.1H0.5H0.4H0.3L0.2 4V4.1V4.1V4.2H0.3V4.3V4.3H0.4H0.3L0.4 4.4H0.3V4.5H0.4V4.4H0.5L0.6 4.3L0.7 4.2V4.1V4.2L0.8 4.1L0.9 3.9V3.9V4.1V4.1H1L1.1 4H1.2L1.3 3.9H1.4L1.5 3.8H1.6V3.7L1.4 3.5H1.3H1.2V3.6V3.5L1.1 3.6L1 3.5V3.5H0.9V3.5H0.8H0.7L0.6 3.4H0.5V3.3H0.4V3.2V3.1L0.5 3V2.9L0.4 2.6V2.5L0.3 2.4L0.2 2.3L0.1 2.2V2.1H0L0.1 2V1.9V1.9V1.7V1.7V1.5V1.4V1.3L0.2 1.2L0.5 1.1H0.6H0.7L1.1 1.2V1.2H1.4V1.2H1.8V1.2H1.9V1.2H2.1H2.2V1.3H2.3V1.4H2.4V1.5H2.5V1.5L2.6 1.7V1.8L2.7 1.9V1.9H2.8L2.9 2.2H3V2.3L3.1 2.4L3.2 2.5V2.5V2.6V2.7V2.8H3.1L3.2 2.7L3.1 2.6V2.7V2.7V2.8H3V2.9L2.9 3H3V3.1V3.1V3.1H2.9V3.1L2.8 3.2H2.9H3V3.2L3.1 3.3V3.3H3.2H3.3H3.4L3.5 3.2V3.2L3.6 3.1V3.1L3.8 2.9V2.8H4V2.8V2.7H4.1V2.7L4.2 2.6L4.3 2.5H4.4V2.5L4.5 2.6V2.7H4.4L4.5 2.8V2.8L4.6 2.9V2.9H4.7L4.8 2.8V2.9V2.8H4.9L4.8 2.7H4.7H4.6L4.5 2.6L4.6 2.5V2.5H4.7L4.9 2.4V2.3L5 2.4V2.3H4.9V2.3H5V2.2H5.1H5.2V2.1H5.4V2.1V2.2H5.5V2.2L5.6 2.1L5.7 2.2V2.2V2.3V2.4L5.6 2.5L5.5 2.4L5.6 2.6V2.6L5.7 2.8V2.8H5.8L5.9 2.7V2.7V2.7V2.8L6 2.7V2.8L6.1 2.7V2.7L6.2 2.6L6.3 2.5V2.6L6.4 2.5V2.5H6.5H6.4V2.4L6.5 2.3V2.2V2.2H6.6V2.3V2.3L6.8 2.4H7V2.4L7.1 2.5H7.2V2.7H7.3H7.4V2.7H7.5V2.6V2.5V2.5V2.5L7.6 2.7H7.7L7.9 2.9L8 3H8.1V2.9H8.2V3H8.3H8.4V3.1H8.6L8.7 3H8.8H8.9V3H9L9.1 2.9L9.3 3L9.4 3.1L9.5 3.2V3.2H9.6V3.3H9.7L9.9 3.4V3.3L10 3.2V3.2V3.3V3.4H10.2H10.4V3.5H10.7L10.8 3.6L10.9 3.7H11V3.8H11.1H11.2L11.3 3.9L11.4 3.8V3.9H11.5V3.9H11.7L11.8 4H11.9H12H12.3L12.4 4.1H12.5L12.7 4.2V4.2H12.8H12.9L13 4.3H13.1H13.2L13.3 4.4L13.4 4.5L13.5 4.4H13.6V4.5L13.7 4.6L13.8 4.7H13.9H14L14.1 4.5V4.5V4.5V4.6L14.2 4.7H14.3H14.4V4.6H14.5L14.6 4.7L14.8 4.8H14.9H15H15.1H15.3H15.4H15.5H15.6H15.8V4.7H15.9L16 4.6V4.6H16.1H16.2L16.3 4.5L16.4 4.6L16.6 4.5V4.5L16.7 4.4V4.3L16.9 4.4H17.1L17.3 4.3H17.4H17.5H17.6V4.3L17.8 4.4H18L18.2 4.3H18.3H18.5H18.6H18.7V4.3H18.8H19.2H19.4L19.6 4.2H19.7L19.8 4.1V4.1H20H20.1L20.2 4H20.3V3.8L20.4 3.7H20.5H20.6H20.7H20.8L20.9 3.6L21 3.5V3.4V3.3H21.1L21.3 3.2L21.5 3.1L21.6 3H21.7L21.8 2.9V2.9V2.8L21.9 2.7L22 2.6L22.1 2.5V2.4H22.2L22.3 2.3V2.2L22.4 2.1H22.5L22.6 2L22.7 1.9V1.8L22.8 1.7V1.7H22.9V1.6L23 1.5H23.2L23.4 1.4V1.4L23.8 1L24 0.9L24.1 0.8L24.2 0.7V0.7H24.3H24.4L24.7 0.6L24.8 0.5L25.1 0.4L25.4 0.2L25.6 0.1H25.7H26L26.5 0H26.6L26.7 0.1L26.8 0.2H26.9H27L27.1 0.4H27.2L27.3 0.5H27.5L27.7 0.6V0.6L28 0.7H28.2L28.3 0.8H28.5H28.7H28.8L29.1 0.9V0.9H29.2H29.3L29.4 1H29.5V1L29.6 1.1L29.8 1.3H29.9H30L30.2 1.4V1.5H30.4H30.6L30.7 1.6H30.9H31L31.1 1.7V1.7H31.2L31.3 1.8H31.4H31.5H31.7H31.8H31.9H32L32.2 1.9V2V2.1H32.3L32.4 2.2L32.6 2.3L32.7 2.4H32.8H33V2.4L33.1 2.5H33.2H33.3V2.5L33.4 2.6H33.5H33.6L33.8 2.7L34.1 2.8L34.3 2.9V2.9L34.4 3L34.6 3.1V3.2H34.7H34.9L35 3.3H35.1V3.3H35.3L35.4 3.4H35.5H35.6V3.4L35.8 3.5L36 3.6H36.1L36.2 3.7V3.9H36.3H36.4L36.5 4.1H36.6L36.7 4.2H36.8L37.1 4.3H37.2L37.3 4.5L37.4 4.6H37.5L37.6 4.7H37.8V4.9L38 5.1V5.2H38.2L38.4 5.3V5.3L38.6 5.5H38.7L38.9 5.6H39L39.1 5.7L39.2 5.8H39.3L39.4 5.9L39.6 6L39.8 6.1L39.9 6.3L40 6.4H40.1L40.2 6.6L40.3 6.7H40.4L40.5 6.9V6.9V6.9H40.6V7L40.8 7.2L40.9 7.4L41 7.6L41.1 7.8V7.8H41.2L41.3 7.9V7.9V8H41.4V8V8V8.1L41.5 8.2V8.2L41.6 8.3L41.7 8.4H41.8V8.5H41.9V8.7L42 8.8L42.1 9V9.1L42.2 9.2V9.2V9.3L42.3 9.4H42.4L42.5 9.5L42.7 9.7H42.8L43 9.8L43.1 9.7L43.2 9.8H43.3V9.9H43.4V9.9V9.9L43.5 9.8L43.6 10H43.7L43.8 10.1H43.9L44.1 10.2V10.3H44.2H44.3V10.4H44.4L44.5 10.5V10.5L44.6 10.6V10.5L44.7 10.6V10.7L44.8 10.8V10.8V10.9L44.9 11V11.1H45L45.1 11.2V11.3V11.4V11.6H45.2V11.7L45.1 11.8L45.2 11.9H45.1V12V12L45.2 12.1L45.1 12.2V12.2L45 12.3V12.4L44.9 12.5H44.8V12.6V12.7H44.7L44.6 12.8V12.9V12.9V12.9L44.5 13V13L44.4 13.1L44.3 13.2V13.3H44.2V13.3L44.1 13.5H44V13.6H43.9H43.8V13.7H43.6H43.5L43.4 13.8L43.3 13.9H43.2V14H43.1V14H42.9L42.6 14.2L42.4 14.3V14.5V14.6L42.3 14.7V14.7H42.2V14.8H42.1L42 14.9V14.9V15H41.9L41.8 15.1V15.2V15.2V15.2L41.7 15.5V15.5V15.6V15.6L41.6 15.7V15.8H41.7L41.6 15.9V15.8H41.5V15.8V15.8H41.4V15.8H41.3L41.2 15.9L41 16L40.8 16.1L40.7 16.2L40.6 16.3L40.5 16.2V16.2L40.3 16.1L40.2 16H40V16L39.9 15.9H39.8L39.6 15.8V15.8L39.4 15.9L39.2 15.8L39.1 15.7L38.9 15.6L38.8 15.7H38.7L38.6 15.8H38.5H38.4L38.3 15.9L38.2 16L38 16.1V16.2V16.3V16.3L38.1 16.4V16.5V16.6L38.2 16.7V16.7V16.7V16.8V16.9L38.1 16.8V16.8H38V16.8V16.9V16.9V16.9V16.9H38.1L38 17V17V17.1V17.1H37.9L37.8 17.2V17.2H37.7L37.2 17.4L37 17.5H36.6L36.5 17.6H36.4L36.2 17.8V17.8L36.1 17.9L36 18.1H35.9V18.2H35.7H35.4V18.2L35.3 18.3H35.2H35.1V18.3H35V18.3H34.8L34.7 18.4H34.4V18.4H34.2V18.4L33.8 18.3V18.4L33.7 18.3H33.5H33.4H33.3H33.2V18.3L32.9 18.4H32.8L32.6 18.6L32.5 18.7V18.7L32.4 18.8V18.9L32.3 19V19H32.2L32 19.1V19.2L31.8 19.3V19.3L31.7 19.4V19.4L31.5 19.5V19.6H31.4V19.7H31.3V19.7L31.2 19.8H31.1L31 19.9L30.9 20L30.7 20.1V20.2V20.2L30.6 20.3V20.4H30.5L30.4 20.5V20.5L30.3 20.6L30.2 20.7H30.1L30 20.8L29.9 20.9L29.8 21L29.6 21.1L29.5 21.2L29.3 21.4V21.5V21.7V21.8L29.4 22V22V22.1V22.3L29.5 22.4V22.5V22.6L29.4 22.9V23L29.2 23.2H29.1H29L28.9 23.3H28.8V23.2L28.7 23.3H28.6V23.3L28.5 23.4H28.3L28.2 23.5V23.5H28.1L28 23.6V23.7V23.7H28.1V23.8L28 23.7H27.9V23.8H27.8L27.7 23.7V23.8L27.6 23.7V23.9V24V24.1V24.1V24.1V24.1V24.3L27.5 24.4V24.4V24.5L27.3 24.4L27.4 24.2L27.3 24.1V24.1H27.4V24.1H27.5V24V24V23.9L27.4 23.8H27.3V23.9V23.9V24H27.2V23.9H27.1V24H27V24.2L26.9 24.1V24.1H26.8L26.7 24.2V24.3L26.6 24.2V24.3V24.4V24.3V24.4V24.5V24.6L26.5 24.7V24.8V24.8L26.4 24.9L26.5 25V25.1V25.1H26.6V25L26.7 25.1V25.1V25.1V25.1L26.8 25.2L26.9 25.3V25.4V25.5V25.5L27 25.6V25.6V25.7V25.7H27.2V25.7H27.3V25.8L27.4 25.9H27.5H27.6H27.7V25.9H27.8L27.7 25.8V25.8L27.6 25.6V25.5V25.5L27.7 25.4V25.4V25.4V25.2V25.1V25V24.9V24.9V24.8V24.7H27.8V24.7L27.9 24.8V24.8V24.9L28 25L27.9 25.2L28 25.3V25.5V25.5V25.6L28.1 25.9V25.9H28.2V26V26V26.1L28.3 26.2V26.3H28.4V26.3V26.3V26.3V26.4V26.4H28.5V26.5V26.5H28.4V26.5V26.5L28.3 26.6L28.2 26.7V26.8V26.8L28 27V27.1H27.9V27.2L27.8 27.3V27.4V27.5L27.7 27.6H27.5L27.3 27.7L27.2 27.8H27.1V27.9H26.8L26.7 28L26.4 28.1L26.3 28L26.2 28.1H26.1V28.1H25.9H25.8V28.2V28.1H25.7H25.6H25.4V28.1H25.3H25.2H25H24.9H24.8H24.7H24.6V28L24.5 28.1H24.3V28H24.1H24L23.8 27.9H23.6L23.4 27.8L23.2 27.7V27.7H23.1V27.5V27.5L23 27.4H23.1L23 27.3V27.3L23.1 27.2V27.1V27.1V27H23.2V26.9V26.9L23.3 26.8L23.4 26.9L23.6 26.7L23.7 26.8L23.8 26.7L23.9 26.6H24L24.2 26.5V26.4V26.2V26.2L24.3 26.1V26.2L24.4 26.1L24.5 26V26H24.6H24.7V26L24.8 25.9H24.9L25 25.8L25.1 25.7V25.7L25.2 25.6V25.7L25.3 25.6L25.4 25.7V25.6L25.5 25.7V25.7L25.7 25.8L25.8 25.7V25.7L25.9 25.6L26 25.4V25.2V25.1V25V24.9L25.9 24.8L25.8 24.6H25.7H25.4V24.5H25.7V24.5V24.2V24.1H25.8V24V23.9L25.9 23.8H26V23.7V23.6V23.4L25.9 23.3V23.1L25.8 22.9L25.7 22.6V22.6L25.6 22.5V22.4H25.5L25.4 22.2V22.2L25.3 22L25.2 21.9L25.1 21.8L24.9 21.6V21.6L24.8 21.5L24.6 21.4L24.5 21.3L24.4 21.1L24.3 21V21H24.2L24 20.9L23.9 20.8H23.7V20.7H23.6V20.6V20.6V20.5H23.5V20.3H23.4V20.3L23.3 20.2V20.1H23.2V20.1L23.1 19.9V19.9V19.8L23 19.7V19.6L22.9 19.4V19.4V19.4L22.8 19.2H22.7V19.1H22.6V19.1V19L22.4 18.9V18.8L22.3 18.7V18.7L22.2 18.6V18.6L22.1 18.5H22L21.9 18.4V18.4V18.4L21.8 18.3V18.2H21.7V18.1H21.6L21.3 17.9L21.2 17.8V17.8V17.8H21.3V17.8V17.7L21.2 17.8L21.1 17.7L21 17.6H20.9V17.6L20.8 17.5L20.6 17.4H20.5V17.3V17.3V17.2H20.4H20.3L20.2 17.1L20 17V17V16.9V16.9V16.9L19.9 16.7V16.6H19.8L19.7 16.5L19.6 16.4V16.4V16.3L19.4 16.2V16.1V16.2H19.3L19.2 16.1V16V16H19.1V15.9L18.9 15.8H18.8L18.7 15.7V15.7L18.6 15.6H18.5H18.4V15.5V15.5L18.3 15.4L18.1 15.2V15.2L18 15.1L18.1 15L18 15.1L17.9 15V14.9V14.9V14.9L17.7 14.8L17.6 14.7H17.4L17.3 14.6L17.1 14.5L17 14.4L16.9 14.3H16.8L16.7 14.2L16.2 14H16.1L16 13.9V13.9H15.9V13.9H15.7L15.6 13.8H15.5L15.3 13.7L15.2 13.6H15L14.9 13.5V13.5V13.5L14.8 13.4V13.4V13.5V13.5L14.5 13.4Z" fill="#7BEA05"/>
</svg>
