<svg width="119" height="37" viewBox="0 0 119 37" fill="none" xmlns="http://www.w3.org/2000/svg">
<path fill-rule="evenodd" clip-rule="evenodd" d="M43.6 12.7H43.7L43.8 12.6L43.9 12.7V12.6V12.6V12.5V12.5H44L43.9 12.4V12.2H44V12.2L44.1 12.1V12.1H44.2H44.4V12.1V12.2H44.5H44.6H44.7H44.8V12.2V12.1H44.7L44.5 12V12.1L44.4 12V12L44.6 11.9H44.7H44.8L44.9 12V12H45V11.9V11.8H44.9V11.7V11.7H44.8V11.6L44.7 11.4V11.4H44.8V11.3H44.7V11.4V11.5V11.6L44.8 11.7H44.7V11.7V11.6V11.3V11.3H44.8L45 11.2H45.1L45.2 11L45.3 10.9V10.8H45.2L45.3 10.7L45.4 10.6H45.5H45.6V10.6V10.7H45.7V10.6H45.6V10.6H45.7L45.6 10.5V10.5V10.5H45.3V10.5V10.4H45.4L45.6 10.3L45.8 10.4L45.9 10.3V10.3H46.1L46.2 10.4V10.4L46.3 10.5L46.4 10.6H46.6H46.7V10.6H46.6V10.6L46.8 10.5L46.9 10.4V10.3V10.2L47 10.1H47.1L47.2 10.2H47.3L47.4 10.3H47.5L47.7 10.5L47.8 10.6V10.6V10.7H47.7V10.7V10.7H47.6V10.9V10.9V10.9L47.7 10.7H47.8L48 10.8L48.1 10.9V11L48.2 11.1V11.2V11.2L48.3 11.3H48.4L48.5 11.4L48.7 11.5V11.6H48.8L49.1 11.7L49.2 11.6L49.3 11.5L49.6 11.3H49.7V11.4H49.9V11.4V11.4L49.8 11.5H49.7V11.5H49.8V11.5L49.9 11.4H50V11.5L50.1 11.6V11.6L50.2 11.7V11.7V11.8H50.3L50.4 11.9V12H50.5H50.7H50.8L51 12.1H51.2L51.5 12.2V12.3H51.6H51.7L51.9 12.4V12.4L52 12.5V12.5L52.1 12.6V12.5H52.2H52.4V12.5V12.6L52.3 12.7V12.7V12.8V12.8L52.4 12.9V12.7L52.5 12.6V12.6L52.6 12.7V12.7L52.7 12.8H52.8H52.9H53.1L53.3 12.9V13H53.4H53.5L53.6 13.1L53.7 13.2V13.2L53.9 13.3L54.1 13.4V13.4L54.2 13.3L54.3 13.4V13.4H54.4V13.4L54.6 13.5L54.7 13.6V13.6V13.6V13.6L54.6 13.7H54.5L54.6 13.8V13.7H54.7V13.8L54.8 13.7H54.9H55H55.1V13.8H55L55.1 13.9L55.2 14H55.3H55.5L55.7 13.9L55.8 13.7L55.9 13.6V13.5V13.4V13.4V13.3L56 13.2V13H56.1L56.2 12.9L56.3 12.7L56.4 12.6V12.5L56.5 12.3L56.6 12.1V12.1L56.8 12L56.9 11.9V11.8L57 11.7V11.6L56.8 11.5V11.5L56.7 11.4V11.3V11.3V11.2H56.8L57 11.3H57.1L57.2 11.4V11.5L57.3 11.6V11.7L57.4 11.8H57.5H57.6H57.8H57.9H58L58.1 11.9H58.3H58.5V11.9L58.6 11.8H58.8V11.8L59.2 11.9L60.3 11.7L60.4 11.8L60.5 11.7L60.7 11.6H60.8V11.6L60.9 11.5H61H61.1V11.6H61.2H61.4H61.5V11.7H61.6V11.7V11.7V12L61.7 12.3V12.3H61.6L61.7 12.4V12.4V12.6H61.6V12.8L61.5 12.7V12.7V12.8H61.4V12.9H61.5V12.9V12.9L61.4 13V13.1V13.1V13.2L61.3 13.3H61.2L61.1 13.4H61.2V13.4L61.3 13.5V13.4V13.4V13.3H61.4V13.3L61.5 13.2V13.1V13.1H61.6V13.4V13.5L61.4 13.6V13.6H61.3V13.7V13.7V13.7H61.4L61.3 13.8V13.8V13.9V13.9H61.4V13.9V13.8H61.5V13.7V13.8V13.8V13.9V13.9L61.6 14V14H61.7L61.6 14.1L61.5 14V14.1V14.1V14.2V14.3V14.3L61.6 14.2V14.3H61.5V14.4L61.6 14.5V14.6V14.6V14.7H61.7V14.8V14.9V14.9V14.9V15V15V15L61.8 15.1H61.7H61.8H61.9V15.2L62 15.3H62.1L62.3 15.2V15.2L62.4 15.1L62.5 15H62.4V15V14.9V14.8L62.3 14.7L62.4 14.6V14.5V14.5V14.4H62.3V14.3H62.1V14.3V14.2V14.2V14.2V14.1V14.1H62.2V14H62V13.9V13.9V13.9L61.9 13.8V13.8L62 13.7V13.7H62.1L62.2 13.8H62.3V13.8L62.2 13.7V13.7L62 13.6L61.9 13.4H62V13.3L61.9 13.4V13.3V13.2V13.1H62V13H61.9V13V12.9V12.9V12.8V12.7V12.6L62 12.5L62.1 12.4H62.2V12.3H62.4L62.5 12.4L62.4 12.5V12.5H62.3H62.2V12.6V12.6H62.4H62.5H62.6H62.7V12.5V12.4H62.8V12.5V12.6V12.6V12.7H63L63.1 12.8V12.8V12.8H63.2V12.9V12.9L63.1 13.1L63.3 13V13V12.9V12.8V12.8H63.4L63.6 12.9V12.9V13V13.1V13.1L63.5 13H63.4V13.1L63.6 13.2V13.2L63.7 13.1L63.8 13.2V13.4V13.5L63.9 13.6L64 13.7V13.7V13.9V14.1L63.9 14.2V14.3V14.4V14.4L63.8 14.6V14.6V14.7V14.7L63.7 14.8L63.6 14.9V14.9L63.7 15V15H63.8V15L63.7 15.3V15.3V15.4L63.8 15.5L63.7 15.6H63.8V15.6L63.9 15.5V15.5L64 15.6H63.9V15.7V15.7V15.7H63.8V15.8V15.8H63.9V15.9V15.8L63.8 15.9V15.9L63.7 16.1V16.2H63.6V16.3V16.3V16.3H63.8V16.3V16.2H63.9V16.5V16.5H64V16.6V16.6L63.9 16.7V16.7H63.8V16.8L63.7 16.9L63.6 16.8V16.9V16.9H63.8V16.9V16.8H63.9V16.9H64V17V17V17L63.9 17.1V17.1V17.1V17.2H64V17.2V17.1H64.1L64 17.3V17.3V17.5V17.6V17.6H64.1L64 17.7V17.8V17.8V17.7L64.1 17.6H64V17.6V17.5L64.1 17.4V17.3H64L64.1 17.2L64.2 17.1L64.3 17H64.5L64.6 17.1V17.2H64.7V17.2H64.8V17.3H64.7V17.4H64.8H64.9V17.3L64.8 17.2L64.9 17.1V17.2V17.3H65L65.2 17.4H65.5V17.4L65.6 17.5H65.8V17.5V17.6V17.6V17.7H65.9V17.7H66L66.1 17.6V17.7L66.2 17.5V17.5V17.4V17.4V17.4V17.3L66.3 17.2L66.4 17.3H66.5V17.4V17.4L66.7 17.3V17.3L66.8 17.4V17.4H66.9H67L67.1 17.3V17.3V17.2H67.2V17H67.3V17.1L67.4 17.2V17.2H67.5H67.6L67.5 17.4H67.6V17.5V17.5L67.5 17.6V17.6V17.7H67.4L67.3 17.8V17.9L67.2 18V18.2H67.3L67.4 18.3V18.4H67.6V18.3V18.3H67.7V18.3V18.2L67.8 18.1H67.9L68 18.2H68.2V18.2L68.3 18.3V18.4H68.4V18.5V18.6V18.7H68.5V18.7V18.8V18.8H68.4L68.3 18.9H68.4V19V19H68.3V19H68.2L68.1 19.1V19.2V19.3H68.2V19.3L68.1 19.4V19.4V19.6H68.2H68.4V19.6V19.7H68.5H68.6H68.7H68.8V19.6H68.9H69H69.1L69.2 19.7H69.1L69 19.8H68.8L68.7 19.9H68.6V19.8L68.4 19.9L68.3 19.8H68.2L68 19.9L68.1 20L68 20.1L68.1 20.2L68 20.3H68.1V20.4H68.2L68.3 20.5V20.5V20.6V20.6L68.4 20.7V20.7V20.7L68.5 20.6V20.6H68.6L68.7 20.5V20.5V20.5L68.8 20.6L68.7 20.7V20.8V20.8V20.9H68.6V21V21V21.2H68.7L68.8 21.5L68.9 21.6V21.7H68.8H68.7V21.8L68.8 21.9V22V22.1V22.3V22.4L68.9 22.5V22.5L69 22.6H69.1L69.2 22.7V22.7L69.3 22.8H69.4H69.5V22.9V22.9L69.7 22.8L69.8 22.7V22.8L69.9 22.9L70 23H70.1V23L70.3 22.9L70.5 22.8L70.6 22.7L70.7 22.6V22.5L70.9 22.4H71L71.1 22.5V22.6L71.2 22.7V22.7V22.8H71.4L71.5 22.7H71.6V22.6H71.7V22.5L71.8 22.4V22.3L71.9 22.2V22.2L72 22.1L72.3 22V21.9L72.4 22L72.5 22.1L72.7 22.2L72.8 22.1H72.9H73H73.1H73.2L73.3 22.2V22.2L73.4 22.3V22.3V22.3L73.5 22.4V22.5L73.4 22.6H73.3L73.2 22.7L73.1 22.8V22.8L73 22.7V22.7V22.8V22.8H73.1V22.8H73V22.9H72.9L73 23V23L73.1 23.1V23.2H73.2L73.3 23.3V23.1H73.4V23.1V23.3V23.4H73.5V23.6H73.6V23.5V23.4H73.7V23.3L73.9 23.2V23.2V23.1H74V23V22.8H74.1H74.2V22.9V22.9V23V23H74.4V23H74.5V22.9H74.6H74.7V22.9V23.1H74.8V23.1V23.2H75V23.2V23.3V23.3V23.4L74.8 23.5V23.5H74.7V23.5L74.6 23.6H74.5L74.6 23.7V23.7H74.7V23.8H74.6V23.8V23.8H74.7L74.8 23.9V23.9L74.9 23.8V23.8H75V23.8H75.1H75.2V23.8H75.3V23.8L75.2 23.9V23.9H75.3V23.9V23.9L75.4 24H75.3H75.4V23.9V23.8V23.9V23.8V23.8V23.7H75.5L75.4 23.6H75.5H75.7H75.8V23.5H76V23.5V23.4L76.2 23.3V23.2V23.2H76.3L76.4 23.1V23V23H76.5V22.9H76.6L76.4 22.7V22.7V22.6L76.6 22.5V22.4L76.7 22.5L76.8 22.6L76.9 22.5V22.5H77H77.1L77.3 22.3V22.3L77.5 22.2V22.1V21.9H77.6V21.9L77.7 21.8L77.8 21.7V21.6L77.9 21.5H78H78.1V21.5L78.2 21.4V21.3H78.1V21.3L78.2 21.2H78.3V21.2L78.2 21.1V21.1H78.1H78.2H78.4V21H78.5L78.6 20.9H78.7V20.8V20.8H78.8H78.9L79 20.7V20.7H79.1H79.2H79.3V20.8L79.4 20.7V20.6H79.3H79.4V20.6V20.6L79.5 20.5V20.5V20.6L79.7 20.7L79.8 20.6V20.6V20.5L79.9 20.4H80H80.2V20.5H80.3V20.5V20.4L80.4 20.5V20.5H80.5H80.6L80.7 20.6H80.8V20.5L80.9 20.4H80.8H80.9H81V20.4V20.3L81.1 20.5V20.5V20.6H81.2V20.6H81.3V20.5V20.5V20.5L81.2 20.4H81.3H81.4L81.3 20.3V20.3H81.4V20.3H81.5V20.3V20.4H81.6H81.7V20.3H81.8V20.3H81.9V20.3L82 20.4V20.4V20.5V20.5H82.1V20.5V20.4L82.2 20.3V20.5V20.5H82.3H82.4V20.5L82.3 20.4V20.3H82.4V20.4V20.4H82.5L82.6 20.5V20.5V20.4H82.7V20.4H82.8L82.9 20.5V20.6V20.7H83.1V20.6V20.5V20.5V20.6H83.2V20.7V20.8L83.3 20.9V21H83.4H83.5H83.6L83.7 21.1V21.1H83.9V21.1H84H84.1L84.2 21V21H84.3V21.1L84.5 21H84.4L84.5 20.9L84.6 20.8V20.8H84.7V20.8V20.8L84.8 20.9H84.9H85V20.7V20.7L84.9 20.6V20.6V20.5V20.5H85V20.6H85.1H85.2V20.6L85.3 20.5H85.2H85.3V20.5L85.4 20.4L85.3 20.3H85.4V20.3L85.5 20.4L85.6 20.6V20.7V20.7L85.5 20.8H85.6L85.7 20.9V20.8H85.8L85.9 20.7V20.7V20.6L85.8 20.5L85.9 20.4V20.4H86V20.4V20.4L86.1 20.5L86.2 20.6L86.3 20.7L86.4 20.6L86.5 20.5V20.4H86.6L86.5 20.3V20.3L86.4 20.2V20.1H86.3V20V20L86.4 19.9V19.8H86.5V19.9V20L86.6 20.1V20.1H86.7V20.1L86.9 20V19.9L87 19.7V19.6V19.4V19.2V19.1L86.9 19V18.9L86.8 18.8V18.7V18.6L86.7 18.5V18.5V18.4V18.3V18.2H86.6V18.1H86.5L86.4 18L86.3 18.1V18.1L86.2 18H86.1H86H85.9V18L85.8 18.1H85.7V17.9V17.9V17.8V17.8V17.7V17.6V17.5V17.4V17.4L85.6 17.3L85.5 17.2L85.4 17.1H85.3L85.2 17H85.1V16.9V16.8H85H84.9H84.7V16.9V16.9H84.5V16.8H84.4H84.3L84.2 16.9V17V17V17.1L84.1 17.2L84 17.3H84.1V17.4L84 17.5V17.5H83.9H83.8H83.7L83.6 17.3L83.5 17.2V17.1V17V17V17V16.9V16.9V16.8L83.4 16.7V16.6V16.4V16.3L83.3 16.2L83.2 16.1V16H83.1H83L82.9 15.9V15.9H82.8H82.7L82.4 15.7V15.6L82.2 15.5V15.5H82.1H82V15.5H81.9L81.8 15.3V15.2V15.1L81.6 15V14.9H81.7V14.8H81.6V14.8V14.7H81.5L81.4 14.6V14.6L81.5 14.5V14.3V14.3H81.4V14.4H81.3V14.4V14.3H81.2V14.2V14.2H81.1V14.3H81.2V14.4H81.1V14.4V14.4V14.5V14.5L81 14.7L80.9 14.8H80.8V14.9L80.7 14.8H80.6V14.8V14.7H80.5V14.6V14.5V14.5V14.4H80.4H80.5V14.3L80.4 14.2V14.1H80.3V14V14V14V14L80.2 13.7V13.7V13.6H80.1L80 13.5V13.4H79.9L79.8 13.2H79.7H79.6H79.5L79.3 13.1L79.2 13.2H79.1V13.2H79V13.2H78.9H78.8H78.7H78.6L78.5 13.3H78.4V13.3H78.3V13.2L78.2 13.3V13.3H78.1H78V13.4H77.9V13.3H77.8H77.7V13.3L77.6 13.4V13.3L77.4 13.4V13.4V13.4L77.3 13.5L76.7 13.6L76.6 13.7H76.5H76.4H76.3H76.2L76.1 13.5L76 13.4H75.9V13.3H75.8V13.3L75.7 13.2L75.8 13.1V13.1L75.7 13H75.6L75.4 12.9V12.9L75.3 12.8H75.2L75 12.7L74.8 12.6H74.7L74.5 12.5H74.4L74.2 12.4H74.1V12.3H74L73.9 12.2V12.2L73.8 12.1V12.1H73.6L73.5 12L73.4 11.9L73.3 11.8L73.2 11.7V11.7L73.1 11.5V11.5H73L72.9 11.4H72.7V11.3H72.5L72.4 11.2L72.3 11.1H72.2L72.1 11H72L71.8 10.8V10.7V10.6L71.6 10.5L71.5 10.4L71.3 10.3L71.1 10.4H70.9H70.8V10.3V10.3H70.9V10.2V10.1H70.8L70.7 10L70.6 10.1H70.5V10.3L70.4 10.2V10.2V10V10L70.5 9.9L70.4 9.7V9.6H70.3V9.5L70.2 9.4V9.4L70.1 9.3L70 9.2H69.9L69.8 9H69.7V8.9H69.6L69.5 8.8L69.4 8.7V8.6H69.3V8.5V8.5L69.2 8.4L69 8.3L68.9 8.2V8V7.9V7.8L68.7 7.7V7.7L68.6 7.5V7.4H68.5L68.4 7.3V7.3H68.3H68.1V7.2H68L67.9 7.1H67.8L67.7 7L67.6 6.8L67.5 6.7H67.6L67.5 6.4L67.4 6.3H67.3L67.2 6.1L67 6H66.9H66.8V6L66.7 5.9V5.8H66.6H66.3H66.2L66.1 5.7V5.7H66V5.6V5.5V5.5H66.1L66.2 5.4L66.3 5.2V5.2L66.5 5.1V5H66.6V4.9L66.7 4.8H66.6V4.7L66.5 4.6L66.6 4.5V4.4V4.3V4.3L66.7 4.1V4V4V3.9V3.8V3.6L66.8 3.5L67 3.3V3.2V3.2V3V3V2.9H67.1V2.6V2.5L67.2 2.4L67.3 2.5L67.4 2.3L67.5 2.5V2.5V2.6H67.6V2.6L67.7 2.7L67.8 2.6L67.9 2.5H68V2.4H68.1V2.4H68.2V2.4V2.3H68.3V2.3L68.5 2.2H68.6H68.7L68.8 1.9L68.9 1.8V1.7H69L69.3 1.5H69.6V1.6V1.6H70V1.6H70.1L70.2 1.7H70.3L70.4 1.8H70.5L70.6 1.7H70.7H70.8L71 1.6V1.6V1.5L71.2 1.4H71.3L71.4 1.3H71.5L71.7 1.2V1.1V1.1L71.9 1V0.9H72V0.9L72.2 0.8L72.5 0.7H72.7V0.6H72.8L73 0.5L73.1 0.4L73.3 0.5H73.4L73.5 0.4V0.3L73.7 0.2L74.1 0H74.2V0L74.5 0.1H74.9L75 0.5L75.2 0.8V0.8L75.3 0.9H75.4H75.5H75.6L75.8 0.8H76V0.8H76.2V0.9L76.3 0.8L76.5 0.7H76.6L76.8 0.6L77 0.5H77.1V0.5H77.3H77.4L77.7 0.6L77.8 0.7H77.9V0.8H78.1L78.4 1L78.7 0.9V1L78.9 0.9H79H79.2L79.4 0.7H79.6H79.7H79.8V0.8L80 1L80.1 1.1H80.2L80.3 1.2L80.5 1.3H80.6L80.7 1.4L80.8 1.5H80.9L81 1.6L81.2 1.7H81.4H81.6L81.8 1.9H81.9L82 2V2.1H82.1L82 2.3V2.4V2.7V2.8V3V3.1L82.1 3.2V3.2V3.4L82 3.7V3.8V3.9V4L82.1 4.1V4.2V4.2V4.3L82.3 4.4V4.5H82.4V4.5H82.5V4.6L82.6 4.7L82.5 4.9V4.9V5V5V5.1V5.1V5.2V5.3V5.3V5.4H82.6V5.5V5.6V5.7L82.7 5.8H82.8V5.9V6H82.9V6V6L83 6.1L83.1 6V6.1V6.1V6.1L83.2 6.2V6.2V6.3H83.3V6.4V6.4V6.5V6.5V6.6L83.4 6.7H83.5V6.7L83.6 6.6V6.7L83.7 6.8V6.8H83.8H83.9H84H84.1V6.8H84.2V6.9V7L84.4 7.1L84.5 7.2L84.6 7.3V7.3V7.4V7.4V7.5L84.7 7.6V7.7V7.8L84.8 8V8V8.1V8.3V8.4L85 8.6V8.8V8.9V8.8L85.1 9V9V8.9V9H85.3V9.1H85.5L85.6 9.2V9.3L85.7 9.4L85.8 9.5H85.9V9.6H86L86.1 9.5V9.4H86H86.1V9.3V9.2V9.2L86.2 9.1H86.5V9.1L86.6 9V9.1V9.2L86.7 9.3L86.6 9.4V9.4V9.5V9.5V9.6V9.6L86.5 9.7V9.7V9.8V9.9V10V10H86.6L86.7 10.1H86.8V10.1H86.9V10V9.9L87 10V10V10.1L87.1 10.2H87H87.1V10.2H87.2H87.3H87.4V10.2H87.5L87.6 10.3H87.7H87.9H88.1L88 10.4V10.5L88.1 10.4V10.3V10.3H88.2L88.3 10.2H88.4L88.3 10V10V10L88.4 10.1L88.5 10.2V10.2H88.6L88.7 10.1V10.1V10V10L88.8 9.8L88.7 9.7H88.8L88.7 9.5L88.8 9.4H89H89.1H89.2L89.3 9.5V9.6V9.6L89.4 9.7H89.5V9.6L89.6 9.5V9.4V9.3L89.8 9.1H89.9H90L90.2 9L90.3 9.1L90.4 9H90.5L90.6 8.9V8.8V8.7V8.7V8.6V8.5V8.4V8.3L90.5 8.2H90.6V8V7.9H90.7L91 7.8H91.1L91.2 7.7H91.4V7.6V7.6V7.5H91.5L91.7 7.3L91.8 7.4L91.9 7.3V7.2H92L92.1 7.1V7.1V7.1L92.2 7H92.3V7H92.4V7H92.5V6.9V6.9V6.8V6.7V6.7L92.7 6.6V6.6V6.5V6.4H92.8V6.4V6.3H92.9L93 6.2H93.1V6.2L93.2 6.1V6V6V5.9H93.3H93.5L93.6 6H93.7V6L93.8 6.1L93.9 6H94.1V6L94.2 5.9L94.3 5.8H94.4L94.5 5.9L94.6 6L94.7 6.1V6.2H94.8L94.9 6.3V6.4H95H95.1H95.3L95.4 6.5H95.5V6.5H95.6V6.6H95.7L95.8 6.5V6.5L95.9 6.6H96L96.1 6.5L96.2 6.6H96.3V6.5H96.4H96.6L96.8 6.6H96.9V6.7H97V6.8H97.2H97.3L97.4 6.7L97.5 6.6V6.6L97.6 6.8L97.7 6.9H97.8V6.9H97.9H98V6.9L98.1 7V7L98.2 6.9H98.3V7H98.4L98.5 7.1L98.6 7.2L98.8 7.3L98.9 7.4H99L99.1 7.5V7.5H99.2L99.4 7.4V7.4H99.6V7.4L99.7 7.5L99.8 7.6V7.7V7.7L99.9 7.8V7.8H100H100.1V7.9L100.2 8V8.1V8.1V8.2V8.2V8.3H100.3L100.4 8.4H100.5V8.5V8.6V8.7V8.7L100.6 8.8L100.7 8.9H100.8V9L100.9 9.2V9.2L101 9.3V9.3L101.1 9.4V9.5V9.6V9.6L101.2 9.8V9.8L101.3 9.9V10V10.1V10.1L101.2 10.2V10.2V10.2V10.2V10.3V10.2L101.3 10.3V10.4V10.4L101.4 10.5V10.6V10.6V10.7V10.8H101.3V10.8V10.9H101.2V11V11.1H101.1V11.1V11.2V11.2H101.2L101.3 11.1V11.1L101.4 11.2H101.3V11.3L101.5 11.2V11.3V11.3H101.3V11.4V11.4H101.2V11.4H101.3V11.4H101.4V11.5L101.2 11.6H101.3L101.2 11.7V11.8H101.1H101V11.8L101.2 11.9V11.9H101.3V11.9L101.2 12H101.1V12L101 12.1H101.1H101.2V12.1H101.3V12.1V12.1H101.2V12.2H101.3L101.2 12.3V12.3V12.4L101.3 12.5L101.2 12.6V12.7V12.7V12.8H101.1V12.9V12.9V12.9L101.2 13L101.1 13.1V13.2V13.2V13.3V13.4V13.5V13.5L101 13.6V13.7L100.9 13.8L100.8 13.9L100.9 14H100.8V14.1L100.7 14.2L100.5 14.3V14.4H100.4L100.3 14.5V14.6L100.4 14.7V14.7V14.8V14.8H100.3V14.8V14.9V14.9V15L100.4 15.1H100.3V15.2V15.2L100.2 15.3V15.4H100.3V15.5H100.4L100.5 15.6H100.6L100.5 15.7V15.8V15.8V15.8H100.4V15.9V15.9V15.9L100.3 16V16.1L100.2 16V16.1V16.2V16.2H100.1V16.3V16.3L100 16.4V16.5V16.5H99.9V16.5V16.6L99.8 16.7V16.7V16.7V16.7V16.8H99.9V16.7H100L100.1 16.5L100.2 16.6V16.4V16.4H100.3H100.4V16.4V16.3L100.5 16.4H100.6V16.4L100.7 16.2V16.3V16.2V16.2V16.1V16V16H100.8V15.9V15.9V15.9L100.9 15.8L101 15.9V15.9L100.9 15.8H100.8V15.7L100.7 15.6V15.6L100.8 15.5V15.5V15.5L101.1 15.6V15.6H101.2H101.3L101.4 15.5V15.5V15.4V15.3H101.5H101.6H101.7L101.8 15.2V15.1L101.9 15V15L102 14.9H102.1L102 14.8H102.1L102 14.6V14.6V14.5V14.3H101.9L102 14.2V14.2L101.9 14.1V14H102V13.9V13.9V14V14H102.1H102.2L102.3 13.9L102.4 13.8V13.6H102.3H102.2L102.1 13.5V13.5H102V13.4V13.4V13.3V13.3H102.2V13.3H102.1V13.3H102V13.2L102.1 13.3H102.2L102.3 13.2H102.2L102 13.1H102.1V13.1V13.1L102.2 13V13L102.1 13.1H102.2V13.1L102.3 13.2V13.1H102.2L102.3 13H102.2L102.3 12.9V12.9H102.4V12.8L102.5 12.7L102.4 12.6V12.5H102.3L102.2 12.4H102.1V12.5L102 12.4V12.4V12.3H102.1V12.2H102L101.9 12.1L101.8 12.2V12.2V12.1H101.9L101.7 12H101.8H101.7L101.6 11.9V11.9V11.9L101.5 11.8V11.7V11.7L101.6 11.6H101.7V11.6H101.8H101.9H102V11.6V11.6L101.9 11.5L101.8 11.4H101.9V11.4L102 11.3H101.9L101.8 11.2H101.7L101.6 11H101.7V11V10.9H101.8L101.9 10.8L102 10.7V10.7V10.7L102.1 10.5L102.2 10.4L102.3 10.3V10.2V10.2L102.4 10.1V10.1L102.5 10V10L102.6 9.8V9.8L102.5 9.6H102.6V9.5V9.5H102.5L102.6 9.4V9.4L102.7 9.3H102.9V9.2L103 9.1H103.1V9.1L103.2 9.2V9.2L103.3 9.1V9V8.9H103.4H103.5V8.9V8.8V8.7V8.7L103.6 8.6H103.7L103.8 8.4L103.9 8.3V8.2V8.2L104 8.1H104.1L104.2 8H104.3H104.4L104.5 7.9V7.9H104.6L104.7 7.8V7.7H104.8L104.9 7.6H105L105.1 7.4V7.4L105.3 7.3H105.4H105.5L105.6 7.2V7.2L105.7 7.1H105.9H106.1L106.3 7.2H106.5V7.2L106.7 7.3H106.8H106.9H107.1V7.4H107.2V7.4H107.3H107.4H107.5L107.6 7.5L107.8 7.3H108.3H108.5L108.6 7.4H108.7H108.8L109 7.5H109.4L109.5 7.6V7.6H109.6L109.7 7.7V7.8V7.7V7.7L109.8 7.6H110.1H110.3V7.7H110.5V7.7L110.7 7.9H110.8H110.9L111.1 8H111.2H111.4L111.6 7.9L111.7 8H111.8L111.9 8.1V8.1H112.1V8.1L112.2 8.2V8.2L112.3 8.3V8.3V8.3V8.4L112.2 8.5L112.1 8.6V8.6V8.7V8.7L112 8.8V8.8L111.8 9.2V9.5L111.9 9.6V9.7L112 9.9H111.9V10V10V10.4V10.5L112 10.6V10.6V10.8H112.1V10.9V11H112.2H112.3V11.1V11.2H112.4L112.5 11.3L112.6 11.4H112.7V11.3H112.8V11.4H112.7H112.6V11.5V11.5H112.7V11.7L112.8 11.8V11.8H112.9V11.9V12V11.9L113 12L112.9 12.1L113.1 12.3V12.3L113.2 12.4V12.4V12.5V12.6L113.1 12.8H113.2L113.3 12.9V12.9L113.4 12.7V12.7V12.7V12.8V12.8L113.5 12.9V12.8L113.6 12.9V12.9L113.7 12.8V12.8L113.8 12.7V12.8V12.9H113.7V12.9V13V13L113.6 13.1V13.1V13.2V13.2H113.7H113.8V13.2L113.7 13.3H113.6H113.5V13.4H113.6V13.4H113.7H113.8V13.3L113.9 13.2H114L114.1 13.3H114V13.4L113.9 13.5V13.4L113.8 13.5L113.9 13.6V13.6L114 13.7V13.7H114.1V13.7H114V13.7H113.9H113.8V13.7L113.7 13.6V13.7H113.6H113.5L113.4 13.8H113.5L113.6 13.9H113.5V13.9V14L113.6 14.1H113.7V14L113.8 14.1V14.1H113.9V14.2V14.3V14.4V14.4V14.5V14.5H113.8V14.6V14.6V14.7V14.7L113.9 14.9H113.8V15L113.7 14.9L113.6 15V15.1V15.1H113.7L113.9 15.2H114H113.9L114 15.3H114.1L114 15.5V15.5H113.9L113.7 15.6H113.6V15.7V15.7L113.7 15.8H113.6L113.5 15.9H113.4H113.3V15.9L113.1 15.8H113V15.8L112.9 15.9V16L113 16.1H112.9L112.8 16V16L112.7 16.2V16.2V16.3V16.4H112.8V16.5V16.6H112.7V16.6V16.7V16.7L112.9 16.6V16.6V16.7V16.7V16.7V16.8H113V16.7L113.1 16.8V16.8L113 16.9V17V17H112.9V16.9H112.8V17L112.7 17.1L112.8 17.2V17.2V17.3V17.3V17.3H112.7V17.4H112.9H112.8H112.7V17.5V17.6V17.7L112.9 17.6H113H112.9L112.8 17.7H112.9V17.7H113L112.9 17.9H113L112.9 18V18V18V18.1L113 18.2V18.2H113.1H113.2H113.1V18.1V18H113L113.1 17.9L113.2 18.1V18.1H113.3L113.2 18.2V18.3L113.3 18.4V18.4H113.4V18.4H113.5V18.6V18.6V18.7L113.4 18.6V18.6V18.8V18.8H113.5V18.9V18.9V19V19L113.4 19.1L113.3 19.2V19.3L113.4 19.4V19.4L113.3 19.5V19.5V19.6V19.7V19.7V19.8L113.4 20V20L113.5 20.1L113.8 20.2L113.9 20.3L114.1 20.4H114.2H114.3H114.4L114.5 20.3L114.7 20.4H114.8L115 20.3V20.3L115.1 20.2H115.2V20.1H115.4V20.1V20H115.5L115.6 19.9V19.9L115.7 19.8V19.7V19.7H115.8V19.8H115.9H116H116.1L116.3 19.7V19.7L116.5 19.6H116.6V19.6H116.7L116.8 19.5V19.5V19.4V19.4L116.7 19.3L116.6 19.2H116.5V19.2L116.4 19.1L116.3 19.2V19.1V19.1V19H116.2V19V18.9H116.3H116.2V18.9H116.1V18.9V18.9V18.8V18.8L116 18.7V18.8V18.8V18.6V18.5V18.5V18.4H116.1V18.3H116.3V18.3V18.4V18.4L116.4 18.5V18.5V18.5H116.5V18.5L116.4 18.4V18.3H116.5V18.4L116.6 18.5V18.4V18.5L116.7 18.6V18.6H116.8H116.9V18.6V18.5V18.5V18.4V18.4L117 18.3H117.1L117.3 18.2H117.4V18.3V18.3H117.6L117.5 18.2L117.6 18.1V18.1V18.1L117.5 18V18.1V18H117.4V17.9V17.9V17.8V17.8H117.5V17.6V17.6V17.7H117.4V17.6V17.5V17.4V17.4V17.3V17.3H117.5V17.3H117.6V17.4H117.7V17.3H117.8V17.3V17.2H117.9V17.1V17.1L118 17V17V17L118.1 17.1V17.1V17.2H118.2L118.3 17.3V17.2H118.4V17.2V17.3H118.3V17.4H118.2V17.4V17.4V17.4H118.1V17.4V17.3V17.4V17.4L118 17.3L118.1 17.5H118V17.4V17.4H117.9L118 17.5H117.9V17.6V17.6H118V17.6L118.2 17.5V17.6V17.6L118.1 17.7V17.7H118V17.8H117.9H117.8V17.8H117.9H118V17.9H118.1H118.2V17.9L118.3 18V18H118.5V18H118.6H118.7V18.1V18.1V18.2H118.6L118.5 18.3V18.5L118.6 18.6H118.7V18.6V18.7V18.7H118.9H119L118.9 18.8L119 18.9H118.9V18.9V18.8H118.7V18.8H118.6V18.8V18.8L118.4 18.9V18.9H118.3V19V19H118.4L118.3 19.1L118.4 19L118.5 19.1V19.1V19.2V19.2H118.4H118.5V19.2V19.3H118.6V19.2V19.3V19.3V19.3L118.5 19.4V19.4V19.4V19.4V19.5H118.6V19.6H118.7L118.6 19.7V19.7V19.7H118.5V19.6L118.4 19.7V19.6L118.3 19.5V19.5V19.4H118.2V19.4V19.4L118.3 19.5V19.6L118.2 19.7V19.7H118.3V19.7L118.2 19.8H118.1H118V19.7V19.7V19.6H117.9L118 19.5H117.9V19.6V19.6V19.5H117.8V19.6V19.6V19.6L117.9 19.7V19.8V19.8V19.8V19.9H117.8H117.7V19.8V19.8H117.6V19.8V19.7L117.5 19.8V19.8V19.9V19.9H117.6V20V19.9H117.7L117.8 20V20V20L117.7 20.1V20.2H117.8V20.2H118V20.2V20.2H118.1H118.2V20.3L117.8 20.4V20.5V20.5L117.7 20.6V20.8H117.8V20.8V20.9V20.9V21V21.1V21.2V21.2L117.9 21.3V21.5L118.1 21.6V21.6H118.2L118.1 21.8H118.2V21.8L118.3 21.7H118.4V21.8H118.3V21.7V21.8H118.2L118.3 21.9V22H118.4V22.1V22.1H118.3V22L118.2 21.9V21.9L118.1 22V22V22.1V22.1V22.1H118.2V22.3H118.3V22.3H118.2H118.1V22.3H118V22.3V22.2L117.8 22.3V22.2L117.7 22.3H117.6H117.5L117.4 22.4V22.5H117.5L117.6 22.6H117.7H117.8V22.7V22.7H117.9V22.8H118.1H118.2V22.9V22.9V23L118.1 22.9V23V23L118 22.9V23H117.9V23H117.8L117.7 23.1H117.6H117.5L117.3 23.2H117.2V23.3H117.1V23.4H117V23.4V23.4H116.9V23.5L117.1 23.6V23.7H117V23.8L116.9 23.9V23.9V24H116.8L116.7 23.9V23.9H116.6V23.8L116.5 23.7H116.4H116.3V23.6V23.6V23.5V23.4L116.2 23.3V23.3V23.2V23.2L116.1 23.1V23.2H116V23.2V23.2V23.1H115.9V23L115.7 23.1V23.2V23.3L115.8 23.4V23.4V23.4L115.9 23.5H115.8V23.6V23.6V23.6L115.9 23.7V23.7H115.8V23.8V23.8L115.7 23.9V23.9H115.6V23.9V23.8L115.5 23.9H115.4V23.8V23.8V23.8L115.2 23.7H115.3L115.2 23.6V23.7V23.6H115.1V23.7H115L114.9 23.6V23.6V23.6V23.6L114.8 23.7L114.5 23.6H114.4V23.6L114.3 23.5V23.5L113.9 23.3H113.8L113.7 23.4H113.6V23.4L113.5 23.3H113.4V23.3V23.3L113.3 23.4H113.2V23.4H113.1V23.4H113V23.4L112.9 23.5V23.5L112.8 23.6H112.7V23.6H112.6V23.6V23.6L112.4 23.5V23.6H112.1V23.6H112H111.9V23.6L111.8 23.7V23.7L111.7 23.6L111.5 23.7V23.7H111.3V23.8H111.2V23.8L111 23.7V23.7V23.7V23.5H110.9V23.5V23.3H110.8L110.7 23.2V23.1V23.1L110.6 23V22.9L110.3 22.8V22.7L110.2 22.6V22.5V22.5L110.1 22.4V22.4L110 22.3L109.9 22.2L109.8 22.1H109.7V22V21.9H109.6L109.5 21.8V21.8L109.4 21.7H109.3L109.2 21.6L109.1 21.5V21.5H109L108.9 21.4H108.8L108.6 21.5H108.5H108.4H108.3L108.2 21.6L108.1 21.7V21.7H108L107.8 21.9V22V22.1H107.7V22V22.1V22.1V22.2H107.8V22.2V22.2H107.9V22.3L108 22.2V22.4H108.1L108.2 22.3V22.4V22.4H108.1H108H107.9V22.5L107.8 22.6V22.7V22.7H107.7V22.8H107.6V22.9V22.9H107.4V22.9L107.2 22.8V22.9H107.1L107 23V23L106.9 23.1V23.1H106.8V23.2L106.7 23.1V23.1L106.8 23V23L106.7 22.8H106.6V22.8V22.7H106.5V22.6L106.4 22.5V22.5H106.3H106.1V22.5L106 22.6V22.6L105.9 22.5H105.8V22.4L105.6 22.2V22.2H105.4H105.3L105.2 22.3V22.3L105.1 22.4H105H104.9H104.8V22.4L104.7 22.3L104.6 22.2H104.5L104.4 22.3L104.3 22.4L104.2 22.5V22.4V22.3H104.1V22.2V22.1H104H103.9V22V21.9V21.8H103.8V21.8L103.6 21.9V21.9L103.4 22L103.3 22.2L103.2 22.3V22.4L103.1 22.5V22.6V22.6V22.6L103 22.7H102.9V22.7V22.8H102.8V22.8L102.7 22.9L102.6 23H102.7V23V23V23.1H102.6V23.1H102.5H102.4V23.1H102.3V23.2V23.3V23.5H102.2H102.1L102 23.6L101.9 23.5H102H101.9V23.5V23.4H101.8H101.7V23.4H101.6V23.4H101.5L101.3 23.5H101.1L100.9 23.6L100.8 23.7L101 23.8L101.2 24L101.3 23.9V23.9L101.4 24V24L101.6 24.1L101.7 24L102 24.1H102.1L102.2 24V24.1H102.3V24.1L102.5 24.2V24.2V24.4V24.4H102.4L102.5 24.5L102.4 24.6H102.5L102.4 24.7V24.8V25V25.1H102.5L102.7 25V24.8V24.7H102.8H102.9V24.5L103 24.4L103.1 24.5L103.2 24.4L103.3 24.5V24.5H103.4H103.5V24.5H103.6V24.5L103.7 24.6V24.6H103.8L103.9 24.5V24.4V24.4H104H104.1V24.4L104.3 24.3L104.4 24.4H104.5H104.6V24.4H104.8V24.4V24.4H104.9V24.4V24.4L105 24.5L105.2 24.4V24.4L105.3 24.5V24.4H105.4V24.3H105.5L105.6 24.4V24.4L105.7 24.5V24.4H105.8H105.9V24.5H106H106.1V24.5V24.5L106.2 24.6H106.3H106.4V24.6L106.5 24.5L106.6 24.6H106.7V24.6H106.8V24.6H106.9H107L107.2 24.5V24.5L107.3 24.4V24.4L107.5 24.3H107.6V24.4V24.4V24.4H107.7H107.8V24.4H107.9V24.4H108.1V24.3V24.3H108.2V24.3H108.3H108.4V24.3H108.5V24.3H108.6L108.7 24.4H108.8H108.9L109 24.5V24.4V24.5H109.1V24.7V24.8H109.2V24.9H109.3V25.1L109.4 25.2V25.2H109.5L109.6 25.3V25.2H109.8V25.2V25.2H109.9V25.1H110V25.2H109.9V25.3L110 25.4H109.9V25.4L110 25.5V25.4V25.5L110.1 25.4V25.4L110.2 25.3V25.3H110.3H110.4H110.5V25.4L110.3 25.5V25.6V25.7V25.8L110.4 25.9V25.9V26L110.5 26.1V26.1V26.1H110.6V26.2V26.2V26.2L110.7 26.3V26.3H110.8L110.7 26.4L110.6 26.3V26.4H110.5V26.4V26.5H110.4V26.5V26.6H110.3V26.6V26.7L110.2 26.8H110.1H110L109.9 27L109.8 27.1H109.7H109.6L109.5 27.2H109.4H109.2H109.1H109V27.2H108.8V27.2H108.7V27.1H108.6V27.1V27H108.5V27H108.4L108.3 27.1H108H107.8V27.1H107.7V27.2L107.6 27.1V27.2H107.5H107.4V27.3V27.3V27.2V27.1L107.2 26.9H107.1V26.9H107V26.9H106.9H106.8H106.7L106.6 27V27.1H106.7V27.2L106.6 27.3V27.3V27.2H106.5V27.2H106.4V27.2H106.3V27.1H106.2V27L106.1 27.1L106 27H105.9H105.8V27L105.7 26.9V26.9V26.8V26.8L105.6 26.6H105.4L105.5 26.5H105.4V26.4H105.2H105.1V26.4H105V26.4L104.9 26.5V26.4V26.4V26.5H104.8V26.4H104.7V26.4H104.6V26.4H104.5V26.3V26.3L104.4 26.2V26.1H104.3L104.2 26V26L104.1 25.9H104V25.9L103.9 25.8V25.9L103.8 25.8H103.7V25.6V25.6L103.6 25.5H103.4H103.3V25.6V25.6V25.7V25.8H103.2H103.1V25.7L103 25.8L102.9 25.7V25.7H102.8L102.9 25.6H102.8V25.6L102.7 25.5V25.6V25.7V25.7V25.8H102.6V25.6V25.6H102.5V25.6V25.5L102.4 25.4V25.4H102.3L102.2 25.5L102.3 25.6H102.1H101.9V25.6L101.8 25.7L101.7 25.8V25.9H101.6H101.2H101.1L101 26V26H100.8V26L100.7 25.9H100.3L100.2 26H100.1H100V26.1H99.9H99.8V26.2H99.6H99.4H99.3V26.2V26.3H99.2H99.1V26.3L99 26.4V26.5V26.5V26.6H98.7H98.6L98.5 26.7L98.4 26.8V26.8V26.9L98.3 27V27L98.2 27.1H97.9H97.8L97.7 27.2H97.6V27.2H97.5L97.4 27.3H97.3H97.2L97.1 27.4V27.4V27.5L97 27.4V27.4V27.4L96.9 27.3H96.8L96.7 27.4H96.6L96.5 27.5L96.4 27.6H96.3V27.7H96.2L96 27.8V27.8H95.9L95.7 27.9L95.5 28.1V28.1L95.4 28.2V28.2L95.3 28.3L95.2 28.4V28.5V28.4H95.1H95V28.4H94.9H94.8V28.5V28.5V28.6H94.7V28.6H94.6V28.5H94.5H94.4H94.3L94.4 28.6H94.3V28.6L94.2 28.7H94.1H94H93.9H93.8H93.7H93.6V28.8H93.5H93.4V28.9V28.8V28.6V28.5H93.3V28.5H93.2V28.6L93.1 28.7H92.9V28.7H92.8L92.5 28.6L92.4 28.5H92.3H92.2L92.1 28.4L91.9 28.3L91.8 28.2H91.7L91.4 28.1L91.3 28L91.1 27.9L91 27.7H90.9L90.8 27.5V27.5L90.6 27.2L90.5 27.1L90.4 27V27L90.3 26.8V26.6V26.6V26.5V26.4V26.2V26V26L90.4 25.8V25.7L90.3 25.6V25.5V25.3V25.2L90.2 25.1V25.1L90 25V25L90.1 24.9V24.8L90.2 24.7L90.3 24.6H90.4L90.5 24.5L90.6 24.4V24.4L90.7 24.5H90.8V24.4H90.9L91 24.3H91.1V24.3H91.2V24.2L91.3 24.1V24V23.9L91.4 23.8V23.7V23.6L91.5 23.4V23.4L91.6 23.3L91.7 23.1L92 22.9V22.9V22.7V22.6V22.5L91.6 21.8H91.7V21.6L91.8 21.5V21.5L91.9 21.4L92 21.5L92.1 21.4V21.3V21.2L92.2 21.1L92.1 21L91.9 20.9L92 20.8H91.9V20.7H91.8V20.7V20.7L91.6 20.6L91.7 20.5H91.8V20.4L91.9 20.3H92L91.9 20.2V20.1V20L91.8 19.8V19.7V19.5L91.7 19.4H91.5L91.3 19.5L91.2 19.4L91.3 19.3V19.3V19.2V19.2V19.2H91.2L91.1 19.3H90.9H90.8L90.7 19.2V19.2V19.1V19H90.8V18.8H90.7V18.8H90.6V18.8L90.5 18.9V18.9L90.4 19H90.3V19.1V19.1V19.3H90.2V19.4V19.5V19.5L90.1 19.4V19.4V19.5V19.6H90V19.8V19.7V19.8H90.1V19.7H90.2V19.8H90.1V19.9H90.2H90.3V19.8L90.2 19.7V19.6H90.3V19.7H90.4L90.5 19.8V19.8H90.4H90.3V20L90.4 19.9V20H90.5V20V20H90.6V20L90.7 20.1V20.2L90.6 20.3L90.5 20.4V20.5V20.4H90.4V20.5H90.3V20.7V20.8L90.5 20.7H90.6L90.7 20.8H90.9H91H91.1V20.8H91.2L91.3 21H91.2V21.1L91.1 21.2V21.2V21.3H91H90.9H90.8V21.4V21.5H90.7V21.5H90.5V21.5L90.4 21.6L90.3 21.7V21.8H90.2V21.9L90.1 21.8V21.9H90V21.8V21.8V21.7V21.7L89.8 21.6H89.7L89.6 21.5H89.5V21.5H89.4L89.3 21.6V21.6V21.7H89.2V21.8V21.9V21.9L89.1 22V22L89 22.1H88.8V22.1V22.3V22.5H88.7L88.6 22.6H88.7V22.6L88.6 22.7V22.9V22.9H88.5V23H88.4V23V23V23.1V23.1L88.3 23.2V23.2L88.2 23.3V23.1L87.7 23.2H87.6L87.3 23.4H87.2L87 23.5V23.6L86.9 23.7V23.8V23.9V23.9V24V24H87V24.1V24.2L86.9 24.3L87 24.4L86.9 24.5V24.5V24.6H86.8H86.5V24.6L86.4 24.7V24.7H86.3V24.7L86 24.8V24.8V24.9L85.9 25V25.2V25.2V25.2V25.2L85.7 25.3V25.3L85.4 25.6L85.2 25.7L84.9 25.8H84.8L84.7 25.9L84.6 26.1V26.2V26.2L84.5 26.3L84.4 26.4V26.5L84.3 26.6V26.7V26.8L84.2 26.9L84.1 27L83.9 27.1H83.8V27.2L83.7 27.3H83.6H83.5L83.4 27.4H83.5V27.5L83.4 27.6L83 27.8H82.7H82.5L82.3 27.9L82.2 28L81.9 28.1L81.8 28.2L81.6 28.4H81.5L81.3 28.5H81.2L81 28.4L80.9 28.3L80.6 28.1L80.2 27.9L80.1 27.8L80.2 27.7V27.6V27.6L80.1 27.5V27.3H80L79.7 27.1H79.6L79.5 27.2L79.4 27.1L79.3 27.2L79.2 27.3L78.8 27.4V27.4H78.7V27.5H78.6L78.4 27.7V27.7H78.3H78.2V27.7V27.6H78.1L77.9 27.7V27.6V27.5H77.8V27.6H77.7V27.6L77.6 27.7V27.7L77.5 27.6L77.4 27.5L77.3 27.6H77.2L77 27.7V27.8V27.8L76.9 27.9V27.9V28L76.7 28.1L76.6 28.2L76.5 28.3V28.4L76.4 28.5V28.6V28.6L76.3 28.8V28.9V29L76.2 29.1H76.1L75.9 29.2V29.2H75.8L75.7 29.3H75.6V29.2H75.5V29.3H75.4H75.3V29.4V29.5H75.2H75L74.9 29.3V29.2V29.2H74.7H74.6H74.5V29.3V29.3H74.4V29.4V29.5H74.3V29.5L74.2 29.6V29.8L73.9 29.9H73.8V29.9L73.7 30L73.6 29.9H73.4L73.3 30V30H73.2V30.1V30.1V30.3H73.1V30.4V30.5L73 30.7L72.9 30.8H72.8V30.8H72.7H72.5L72.4 30.7L72.3 30.6L72.2 30.5V30.5V30.5H72H71.9L71.8 30.3V30.3V30.2H71.7H71.6V30.3L71.4 30.4H71.3H71.2L71.1 30.3V30.3V30.2L71 30L70.9 29.9V29.8L70.8 29.6V29.6V29.5L70.6 29.4V29.4L70.5 29.2H70.4V29.2H70.2L70 29.3V29.3V29.3L69.9 29.4H69.8H69.7V29.4L69.6 29.6H69.5V29.7L69.4 29.8L69.3 29.9L69.2 30L69 30.3V30.3L68.9 30.4L68.6 30.5L68.3 30.4L68.1 30.3H68L67.8 30.1L67.7 30H67.8L67.7 29.9L67.6 29.8H67.5H67.4V29.8L67.2 29.9L66.2 30V29.9H66.1H65.9V30H65.5L65.4 30.1V30.3L65.3 30.4L65.2 30.5V30.6L64.8 30.7H64.6H64.5V30.8H64.4H64.3V30.7H64.2V30.7H64.3V30.7V30.8L64.2 31.1H64L63.9 31.2H63.8L63.7 31.3L63.6 31.4H63.5H63.3V31.4L63.1 31.5L63 31.6V31.6H62.9V31.7V31.7V31.7V31.8H62.8V31.9V31.9V31.9V32V32L62.7 31.9H62.6V32V32.1V32.2L62.5 32.1L62.3 32.2V32.1L62.1 32.3H61.9V32.3H61.8L61.7 32.4V32.5L61.6 32.6L61.5 32.5V32.6V32.6L61.4 32.7H61.3L61.2 32.6V32.7L61.1 32.6V32.7V32.8V32.7H61V32.9H60.9V32.9H60.8V32.8H60.7H60.6L60.5 32.7L60.3 32.9L60.2 33V33V33.1H60V33.1H59.9L59.8 33.3V33.2H59.7V33.3H59.6V33.3V33.3L59.5 33.4H59.4V33.4H59.3V33.5V33.5H59.2H59H58.9V33.5H58.8V33.6L58.7 33.5V33.5H58.6V33.5L58.5 33.6H58.2V33.6L58.1 33.7L58 33.6V33.7V33.7V33.6H57.8V33.7H57.7V33.8H57.6L57.4 33.9L57.2 34H57.1V34.1L56.9 34L56.7 34.2H56.6V34.3H56.4V34.3H56.3V34.3L56.2 34.4L56.1 34.5V34.6H55.7V34.5H55.6L55.4 34.6V34.7H55.3H55.2V34.6H55.1H55V34.6H54.9V34.6L54.8 34.5L54.7 34.6V34.6V34.5V34.6V34.6L54.5 34.7V34.8L54.4 34.7V34.8V34.8H54.2V34.7V34.7V34.5H54.1L54 34.4L53.9 34.3H53.8H53.7V34.4L53.6 34.5H53.5H53.6V34.6L53.5 34.5L53.4 34.6V34.7H53.2V34.8H53.1H53L52.9 34.6H52.8V34.6L52.7 34.5H52.6L52.5 34.4H52.4V34.3H52.3L52.2 34.4V34.4H52V34.4L51.9 34.5L51.7 34.4L51.5 34.3H51.4H51.1V34.2L50.9 34.1H50.8V34H50.7H50.6V34H50.5L50.2 33.8V33.8H50.1V33.8L50 33.7H49.8L49.4 33.5H49.3H49.1H48.9H48.7H48.6V33.5L48.1 33.6L47.8 33.7L47.7 33.8V33.8L47.6 34L47.5 34.1L47.4 34.2H47.5L47.4 34.3V34.4L47.3 34.5V34.5L47.2 34.6L46.9 34.7V34.8V34.7L46.8 34.8H46.9V34.9V34.9L46.8 35V35V35L46.7 35.1L46.3 35.3V35.4V35.5L46.4 35.6V35.8V35.8H46.3L46.2 35.9H46.1H45.9V35.9V36H45.6H45.4V36H45.3H45.2H45.1H45V36L44.9 36.1V36.1L44.8 36V35.9L44.7 36L44.8 36.1L44.6 36.2H44.4V36.2H44.2L44.3 36.3H44.2H44.1V36.3H44H43.9V36.3H43.8V36.4H43.7V36.5V36.5H43.6H43.5L43.3 36.4V36.4H43.2H43.1H43V36.4V36.5H42.9V36.5L42.8 36.6H42.7H42.4L42.5 36.5H42.4H42.3V36.6V36.6L42.2 36.7V36.7H42.1L41.9 36.6V36.5V36.5V36.4V36.4L41.8 36.2V36.2L41.7 36.1H41.6H41.5L41.4 36H41.3V35.9V35.8H41.2V35.9L41.1 36V36V35.9H41V35.9V35.9L40.9 35.8V35.8V35.8L40.6 35.7V35.7L40.5 35.6V35.6V35.6L40.4 35.4V35.4L40.3 35.3L40.1 35.1H40V35L39.9 34.9L39.8 34.8V34.8H39.9V34.7V34.7H39.8V34.8V34.8V34.9L39.7 34.8V34.8L39.5 34.7V34.7V34.6V34.7H39.3H39.2H39.1H39V34.7H38.8V34.7V34.7V34.8L38.7 34.9H38.6L38.4 35H38.3V35L38.2 35.1H38H37.9H37.8V35H37.7V35H37.6V34.9H37.5V35V35H37.3L37.1 34.9H37H36.9L36.8 34.8V34.8L36.7 34.7L36.5 34.6L36.4 34.5V34.4V34.4H36.3V34.4V34.4L36.1 34.3H36H36.1L36 34.2H35.9V34.3V34.3V34.4H35.8V34.5H35.7L35.6 34.4L35.5 34.3L35.4 34.2L35 34.1V34.1L34.9 34H34.8H34.6H34.5V34L34.4 34.1H34.1L34 34L33.9 33.9L33.7 33.8L33.6 33.7V33.7L33.4 33.5V33.5L33.2 33.3L33.1 33.2H33L32.8 33L32.6 32.9L32.4 32.7V32.7H32.3L32.2 32.8V32.8L32.1 32.9V33V33L32 33.1V33V32.9V32.9V32.9L31.9 32.8L32 32.7V32.7L32.1 32.5L32.3 32.4V32.4V32.3V32.1V32.1V32H32.2V31.9L32.1 31.8H31.9H31.8V31.8V31.9V31.9V31.9H31.7H31.6V31.8V31.8H31.5V31.8V31.7H31.6H31.5V31.6H31.6V31.6V31.7H31.7L31.8 31.6V31.6V31.6H31.9V31.6V31.5V31.5L31.8 31.4H31.9V31.4V31.3V31.3H32V31.3L32.2 31.2H32.3V31.1V31V31V30.9V30.8H32.2L32.3 30.7V30.6H32.2V30.5H32.3V30.5V30.4H32.4V30.4H32.5L32.6 30.3V30.2H32.7H32.8V30.1V30.1V30L32.7 29.9H32.6L32.5 29.8H32.4H32.3H32.2V29.8H32.1L32 29.7H31.9V29.6V29.5V29.4H32V29.5L32.1 29.4V29.3V29.2H32V29.1L32.1 29V29L32.2 28.9V28.9L32.3 29L32.4 29.1H32.5V29.1V29.1H32.6L32.5 29.2H32.6V29.1V29.2V29.2L32.7 29.3V29.2L32.8 29.1V29.1V29V28.9V28.9L32.7 28.8V28.8V28.8H32.6L32.5 28.7V28.6H32.4V28.6H32.3H32.2V28.6V28.5H32.3V28.4V28.4H32.4V28.3L32.3 28.2V28.2H32.2V28.2V28.2L32.1 28.1H32.2V28H32.3H32.4H32.5H32.6V27.9L32.7 28L32.8 27.9H32.9L33 28V28L33.1 27.9L33.2 27.8L33.3 27.7L33.4 27.6V27.5L33.5 27.4V27.2V27.1L33.4 27H33.3V27V26.9H33.4H33.5V26.8H33.8H33.9V26.6V26.7L34 26.6V26.6V26.5V26.3V26.3V26.3V26.2H34.1V26.3V26.3L34.2 26.4H34.3L34.4 26.5V26.6V26.6H34.5V26.5V26.5V26.5L34.6 26.6H34.7L34.8 26.5H34.9V26.4L35 26.3V26.3V26.4L34.9 26.5V26.5L34.8 26.6V26.6H34.9L35 26.7V26.8V26.7V26.7H35.1V26.7H35V26.6V26.5H35.1V26.5V26.5V26.4V26.4V26.4H35V26.4H35.1V26.2L35.2 26.3V26.4H35.3V26.2H35.2V26.1L35.1 26.2L35 26.3V26.3V26.1V26.1V26V25.9H34.9V25.9V25.8V25.7V25.6V25.6V25.5V25.3L34.8 25.1L34.7 24.9L34.6 24.8L34.4 24.6V24.6L34.2 24.5V24.4H34.1L34 24.6H33.9V24.7V24.8L33.8 24.7V24.6V24.6V24.6L33.7 24.5V24.4V24.4L33.8 24.3V24.3V24.2L33.9 24.1V24.1L34 24V24L33.9 23.9L33.8 23.8L33.7 23.7L33.6 23.6V23.5H33.5L33.4 23.6V23.6V23.6H33.3V23.6V23.5H33.4V23.5H33.3V23.4H33.2H33.3V23.3H33.4V23.2H33.3V23.1H33.4L33.5 23V23L33.6 23.1H33.7V23.1H33.8H33.9V23L34 22.9V22.8V22.8L33.9 22.7H33.8V22.6L33.9 22.7L34 22.6V22.6V22.5L33.8 22.3V22.3L33.7 22V21.9V21.9V21.8L33.6 21.7V21.7V21.7L33.5 21.6L33.6 21.5V21.5V21.4V21.3V21.2V21.2L33.5 21.1H33.4V21.2H33.2H33.1L33 21.1H32.9V21L32.8 20.9H32.7L32.6 20.8V20.8H32.7V20.8H32.8H32.9V20.7H33.1L33.2 20.4L33.4 20.1V20H33.5V19.8V19.7V19.6L33.6 19.3L33.7 19.2V19.1L33.8 19H33.9L34 18.9V18.6V18.5V18.4V18.3L34.1 18.2V18.2L34.4 18L34.6 17.9L34.7 17.8L34.8 17.9L35 17.8V17.8H35.1L35.4 17.6V17.4L35.5 17.3L35.6 17.1H35.7V17V16.8V16.8V16.6L35.3 15.8L35.2 15.7V15.6V15.5V15.5H35.4V15.5H35.5H35.6V15.5L35.7 15.6L35.6 15.8V15.8V15.9H35.7V16.1H35.8V16.2L35.9 16.3V16.3L36 16.4L36.1 16.3V16.3H36.2V16.3L36.4 16.4H36.5V16.3L36.6 16.2V16.2L36.7 16.1H36.8L36.9 16H37V16H37.1V16L37.3 15.9V15.9H37.6H37.7H37.8H38H38.1H38.2H38.4H38.6L38.8 15.8L38.9 15.7H39V15.6V15.6V15.6L39.1 15.4V15.4H39.3V15.5L39.6 15.6L39.7 15.5L39.9 15.4L40 15.3V15.2V15.1V15V14.9V14.9L40.1 14.8V14.8L40.3 14.7V14.6V14.6V14.6L40.4 14.8V14.8V14.9V14.9V14.7V14.7H40.5L40.6 14.8H40.7L40.8 14.7H41V14.6V14.6V14.5V14.4V14.4V14.3L41.1 14.2H41.2V14.1H41.3H41.4V14.1H41.5V14.2H41.4V14.2V14.2L41.3 14.1H41.2V14.2V14.4V14.5H41.3V14.4L41.4 14.5V14.6H41.3V14.7V14.7V14.7H41.4L41.5 14.8L41.4 14.9L41.5 15L41.6 15.1V15.1V15.1H41.5V15.2V15.2L41.6 15.1H41.7V15.1L41.8 15L42 14.7L41.9 14.6V14.6V14.5L42 14.3V14.3V14.3H42.1L42.2 14.2V14.2V14.1L42.1 14V13.8V13.8L42 13.7V13.7H41.9V13.7V13.6H41.8H41.9H42V13.6V13.6L41.9 13.7H42V13.7V13.7H42.1L42.2 13.6V13.7H42.4V13.6H42.5V13.5V13.4H42.6V13.3H42.7L42.8 13.2V13.2H42.9L42.8 13.1V13L42.9 12.9V13H43.1L43.2 12.9H43.3H43.4L43.5 12.8V12.8V12.7H43.6V12.7Z" fill="#7BEA05"/>
<path fill-rule="evenodd" clip-rule="evenodd" d="M6.8 23.8996V23.7996L7 23.6996L7.1 23.5996L7.2 23.4996H7.3V23.6996H7.4V23.5996V23.5996L7.5 23.4996H7.4V23.4996V23.3996L7.3 23.4996V23.3996V23.3996V23.2996V23.2996V23.0996V23.0996L7.4 22.9996V22.9996V22.8996V22.8996L7.5 22.7996V22.8996V22.8996V22.9996H7.6H7.7H7.8L7.9 22.8996V23.0996V23.0996L7.8 23.1996L7.7 23.2996V23.3996H7.8L7.7 23.4996V23.4996L7.8 23.5996H7.9V23.6996L7.8 23.7996H7.7H7.6V23.8996V23.9996H7.7V24.0996V24.1996V24.1996V24.2996H7.6L7.7 24.3996V24.4996H7.8L7.9 24.3996V24.3996V24.2996L8 24.1996V24.3996V24.3996V24.2996V24.1996L8.1 24.2996L8.2 24.4996V24.4996H8.3H8.4H8.5V24.4996L8.4 24.6996V24.6996H8.5H8.6L8.5 24.4996H8.7H8.6V24.4996L8.5 24.3996V24.3996V24.3996H8.4V24.1996V24.0996V24.0996L8.3 23.9996L8.4 23.8996V23.8996L8.5 23.7996L8.6 23.6996V23.6996V23.6996V23.5996V23.5996L8.7 23.4996V23.3996H8.8V23.3996V23.4996L8.9 23.3996H9V23.2996L9.1 23.1996V23.1996V23.1996H9.2V23.0996V23.0996H9.1H9H8.9L8.8 23.1996V23.1996V23.0996H8.7V23.0996L8.6 23.1996H8.5V23.0996H8.4V23.0996V23.0996L8.5 22.9996V22.9996V22.8996V22.8996L8.4 22.7996V22.7996L8.5 22.6996H8.6V22.6996L8.5 22.5996V22.5996V22.4996V22.3996V22.3996V22.4996L8.4 22.6996V22.7996L8.5 22.8996V22.9996H8.4V22.8996L8.3 23.0996V23.0996L8.4 23.1996L8.3 23.2996V23.2996L8.2 23.3996H8.4L8.2 23.4996V23.3996L8.3 22.9996V22.9996V22.7996L8.4 22.4996L8.6 21.7996L8.7 21.3996V21.2996L8.8 21.0996V20.9996V20.8996L8.7 20.6996V20.5996V20.4996V20.2996V20.0996L8.8 19.9996L8.9 19.5996V19.4996V19.2996V18.9996V18.5996L8.8 18.2996V18.0996V17.7996V17.5996V17.4996V17.2996V17.0996V16.9996L8.7 16.7996V16.4996V16.3996V16.1996L8.6 15.9996V15.8996L8.5 15.6996V15.5996L8.4 15.4996V15.4996V15.4996L8.3 15.3996V15.2996V15.2996L8.2 15.1996L8.1 15.0996V15.0996L8 14.9996H7.9V14.9996L7.8 15.0996V15.0996V14.9996L7.9 14.8996L7.8 14.7996H7.7V14.7996H7.6V14.6996V14.5996V14.5996V14.5996L7.5 14.3996H7.4H7.5V14.3996L7.6 14.2996V14.1996L7.5 13.8996H7.6V13.7996L7.5 13.6996V13.6996V13.5996V13.3996V13.2996V13.1996H7.4V12.9996V12.8996H7.5H7.6V12.7996H7.7L7.6 12.6996H7.5H7.6H7.7L7.8 12.5996L7.9 12.4996V12.2996V12.2996V12.1996H7.8H7.7V12.1996H7.8L7.9 11.9996L8 12.0996V12.0996V12.0996L8.1 11.9996V11.8996V11.7996L8.2 11.6996V11.4996H8.3V11.5996H8.4V11.5996L8.5 11.4996V11.4996H8.6H8.7V11.4996H8.8V11.5996H8.9H9H9.1V11.4996V11.4996L9.3 11.3996L9.4 11.2996L9.6 11.1996H9.8V11.1996L9.9 11.0996L10 10.8996V10.7996V10.5996L9.9 10.3996L9.8 10.1996V10.1996L9.7 9.99961H9.8V9.99961H9.9H10H10.1L10.3 10.1996L10.4 10.2996H10.5V10.2996V10.1996V10.0996L10.6 9.89961L10.7 9.99961V10.0996H10.8V10.0996H11V10.0996L11.1 9.99961V9.89961V9.89961L11.2 9.79961H11.3H11.4V9.59961H11.5L11.6 9.39961V9.39961H11.7H11.9V9.39961H12H12.1H12.3L12.5 9.29961L12.6 9.19961V9.19961L12.8 8.89961L12.9 8.69961V8.69961L12.8 8.59961V8.49961L12.9 8.39961V8.29961L13 8.19961L13.1 7.99961H13.2V7.99961H13.4L13.5 7.89961L13.7 7.59961L13.8 7.49961V7.39961H13.9L14 7.29961L14.1 7.09961V7.09961L14.2 6.99961L14.4 6.89961L14.6 6.59961H14.7L14.9 6.49961L15 6.39961L15.2 6.29961V6.19961L15.4 6.09961H15.5L15.6 5.99961L15.7 5.89961L16.2 5.69961V5.69961L16.4 5.59961V5.59961L16.5 5.69961H16.6L16.7 5.59961L16.8 5.49961V5.39961V5.39961L16.9 5.29961H17H17.2L17.5 5.09961V4.99961H17.6H17.7L17.8 4.89961H17.9H18L18.2 4.79961H18.3L18.5 4.69961L18.7 4.59961V4.69961H18.8H18.9H19H19.1L19.3 4.59961H19.4L19.5 4.69961L19.6 4.79961H19.7V4.79961H19.8L20 4.89961H20.2H20.3H20.4L20.6 4.79961L20.8 4.89961H20.9H21L21.2 4.99961H21.4V4.99961L21.6 5.09961H21.7V5.09961L21.8 5.19961L21.9 5.29961H22L22.1 5.19961H22.5L22.6 5.29961V5.29961H22.7V5.39961H22.9V5.49961H23.1H23.2V5.49961L23.3 5.59961L23.4 5.69961V5.69961H23.6V5.79961L23.7 5.89961V5.99961H23.8L23.9 6.09961L24.2 6.19961H24.3H24.4H24.5V6.19961H24.6L24.8 6.09961H24.9L25 6.19961H25.1H25.2L25.3 6.29961H25.5L25.6 6.49961H25.7H25.8H25.9H26V6.49961L26.1 6.59961V6.59961H26.2H26.4L26.6 6.69961H26.7L26.8 6.79961H26.9L27 6.89961H27.1L27.2 6.99961L27.3 7.09961L27.4 7.19961H27.7L28 7.09961H28.1H28.2H28.3L28.4 7.19961H28.5H28.6H28.7L28.9 7.29961H29H29.1L29.2 7.39961L29.3 7.49961L29.5 7.59961V7.59961V7.59961L29.6 7.69961V7.69961L29.7 7.79961V7.89961L29.8 7.99961V7.99961L29.9 8.09961H30L30.1 8.29961V8.29961L30.2 8.39961V8.39961L30.3 8.49961L30.4 8.59961L30.5 8.79961L30.6 8.89961L30.7 8.99961L30.6 8.89961V8.89961V8.99961H30.7V9.09961H30.8H30.9H31H31.1L31.2 9.19961V9.19961L31.3 9.29961V9.29961L31.4 9.39961L31.5 9.49961H31.6V9.59961L31.5 9.79961H31.6L31.7 9.89961L31.8 10.1996L31.9 10.2996V10.3996H31.8V10.4996V10.5996V10.6996V10.7996V10.8996V11.0996V11.0996V11.2996H31.7L31.6 11.5996V11.5996L31.5 11.6996V11.6996L31.4 11.7996V11.7996L31.3 11.8996L31.4 11.9996V12.0996V12.0996L31.5 12.1996L31.4 12.2996L31.3 12.3996V12.3996V12.4996V12.5996H31.4V12.7996V12.8996V12.8996L31.2 12.9996L31.1 13.0996H31L30.9 13.1996L30.8 13.2996V13.3996L30.7 13.4996H30.6L30.5 13.6996V13.6996L30.3 13.7996L30.2 13.9996H30.1L30 14.0996L29.9 14.1996L29.8 14.2996V14.2996L29.7 14.4996H29.6V14.5996V14.5996V14.5996L29.7 14.6996H29.6V14.7996L29.7 14.8996V14.7996L29.8 14.8996V14.8996L29.9 14.9996L30 15.0996V14.9996V14.9996V14.8996H30.1V14.8996V14.6996V14.6996L30 14.4996L29.9 14.3996V14.3996L30 14.4996V14.4996L30.1 14.3996V14.2996V14.2996V14.2996L30.2 14.1996V14.2996V14.2996L30.1 14.4996V14.4996V14.5996L30.2 14.6996V14.7996V14.9996V15.0996V15.0996L30.1 15.1996L29.9 15.2996L29.8 15.3996V15.3996L29.7 15.5996V15.6996L29.6 15.7996L29.5 15.9996V16.0996V16.2996V16.5996L29.6 16.6996V16.7996L29.7 16.8996V16.8996L29.8 16.9996V17.0996L29.7 17.1996L29.6 17.3996L29.4 17.5996V17.5996L29.3 17.6996L29.2 17.7996L29.1 17.8996L28.9 18.0996L28.6 18.2996L28.3 18.5996V18.6996V18.7996V18.8996V18.9996L28.2 19.0996V19.1996V19.2996V19.3996V19.3996V19.4996L28.1 19.5996L28 19.6996L27.9 19.7996V19.8996L27.8 19.9996L27.7 20.0996V20.0996L27.6 20.2996V20.2996L27.5 20.4996L27.4 20.5996L27.3 20.6996L27.1 20.7996L27 20.8996L26.9 20.9996V21.0996L26.8 21.1996V21.2996L26.7 21.3996V21.4996V21.5996V21.6996V21.7996L26.6 21.8996V21.8996H26.5H26.6L26.5 21.9996H26.6L26.5 22.0996V22.0996L26.4 22.1996V22.1996L26.3 22.2996V22.3996L26.1 22.5996L26 22.6996L25.8 22.9996V23.0996V23.1996L25.7 23.2996H25.8V23.3996V23.4996L25.7 23.5996L25.6 23.6996L25.7 23.7996L25.5 23.8996V23.9996L25.4 24.0996V24.0996L25.3 24.1996V24.2996L25.2 24.1996V24.2996L25.1 24.1996V24.2996H25.2V24.2996V24.2996L25 24.3996V24.4996L24.8 24.5996L24.6 24.7996V24.8996H24.5L24.4 24.7996V24.7996L24.3 24.9996V24.8996V24.8996L24.4 24.7996H24.5H24.6L24.5 24.6996V24.7996L24.4 24.6996L24.3 24.7996V24.7996L24.2 24.8996H24.3L24.2 24.9996V24.9996L24.1 25.0996H24.2V25.1996L24.1 25.2996V25.3996V25.3996V25.3996V25.2996H24L24.1 25.3996V25.4996V25.4996V25.5996L24 25.6996V25.6996V25.6996L23.9 25.7996H24L23.9 25.8996V25.9996H23.8H23.7V25.9996V25.9996L23.6 25.8996V25.8996H23.5H23.4V25.8996H23.3L23.2 25.9996V25.9996V25.8996H23.1H23H23.1L23.2 25.9996V25.9996V25.9996L23.3 26.0996V26.1996H23.4L23.3 26.2996V26.2996V26.3996V26.3996V26.3996H23.4H23.3L23.4 26.2996V26.1996V26.1996H23.5H23.6V26.1996H23.7L23.8 26.0996H23.9V25.9996V26.0996V26.0996V26.0996V26.1996V26.1996V26.2996V26.3996V26.4996V26.4996V26.5996L23.8 26.4996V26.5996V26.5996L23.9 26.6996V26.6996L23.8 26.7996V26.7996V26.7996V26.8996V26.8996V26.8996L23.7 26.9996V27.0996L23.8 27.1996V27.1996H23.7V27.2996V27.2996V27.3996V27.3996V27.4996V27.5996H23.8V27.5996V27.5996L23.9 27.6996H24V27.7996H24.1V27.6996V27.6996V27.6996H24.2V27.6996H24.3V27.6996V27.4996H24.2H24.1V27.3996V27.3996V27.2996H24V27.1996H24.1V27.0996V27.1996L24.2 27.0996H24.3V27.1996V27.1996H24.4V27.2996V27.2996V27.1996L24.5 27.2996V27.2996H24.6V27.1996L24.5 27.0996V27.1996V27.0996H24.4V27.0996L24.5 26.9996H24.4V26.9996V26.9996L24.5 26.8996V26.8996V26.8996H24.4V26.7996H24.5V26.8996V26.8996H24.6V26.9996H24.5V26.9996V26.9996L24.6 27.0996V26.9996V27.0996H24.7V26.9996V26.9996V26.9996H24.8V26.9996V26.9996V27.0996H24.9V27.1996L25 27.0996V27.0996V27.0996H24.9V26.9996H25H25.1H25L25.1 26.8996H25V26.9996H24.9V26.9996V26.8996H24.8V26.8996V26.8996L24.7 26.7996V26.8996L24.6 26.7996H24.7H24.8L24.9 26.8996V26.7996V26.8996L25 26.7996H24.9V26.7996L24.8 26.6996V26.6996H24.7V26.5996V26.5996H24.8V26.5996L24.9 26.6996V26.6996H25H25.1H25.2H25.1L25.2 26.7996V26.7996H25.3L25.4 26.9996L25.3 27.0996H25.2L25.3 27.1996V27.1996H25.4V27.1996V27.0996L25.5 27.1996V27.2996V27.2996V27.3996L25.4 27.2996V27.2996H25.3V27.3996V27.3996H25.2V27.2996L25.1 27.3996V27.3996H25H25.1H25.2V27.4996V27.3996L25.3 27.4996H25.4V27.5996V27.5996L25.3 27.4996V27.5996V27.5996V27.6996L25.2 27.5996V27.5996V27.6996V27.6996V27.7996H25.1V27.8996H25.2L25.3 27.7996V27.8996V27.8996V27.8996H25.4V27.8996V27.9996V27.9996H25.3V27.9996V27.9996H25.4V28.0996V28.0996V28.0996H25.5V27.9996V27.9996V27.9996H25.6V27.9996V27.8996H25.5L25.4 27.7996V27.7996V27.6996L25.5 27.5996V27.7996V27.7996L25.6 27.6996V27.6996L25.7 27.7996V27.7996V27.6996H25.8H25.9V27.6996V27.7996H26V27.6996V27.7996L26.1 27.6996H26L26.2 27.5996V27.4996L26.3 27.5996H26.2V27.6996V27.6996V27.7996V27.7996L26.1 27.8996V27.9996V27.9996L26.2 27.8996V27.8996V27.9996H26.3V27.9996L26.2 28.0996H26.3V28.0996H26.4V27.9996V27.9996V27.9996V27.8996L26.6 27.7996V27.7996V27.6996V27.7996H26.7V27.7996H26.8V27.6996H26.9V27.7996V27.7996L27 27.6996H27.1L27.2 27.7996L27.3 27.8996L27.2 27.9996H27.1V27.8996V27.8996H27L26.9 27.9996V27.9996V28.0996V28.1996V28.1996V28.1996H26.7V28.1996V28.1996H26.6V28.1996V28.2996V28.2996V28.2996V28.3996H26.5V28.4996L26.4 28.3996V28.4996V28.5996V28.4996V28.5996V28.5996V28.7996V28.7996V28.7996V28.8996V28.9996V28.8996H26.3L26.1 28.9996V29.0996V29.0996H26V28.9996L25.9 29.0996V29.0996H25.8L25.9 29.1996H25.8V29.0996H25.7V29.1996V29.1996H25.6V29.1996V29.1996V29.1996L25.5 29.2996V29.1996H25.4V29.1996V29.2996V29.2996L25.3 29.3996V29.2996L25.2 29.3996V29.3996H25.1V29.3996V29.3996L25 29.4996V29.3996H24.9V29.4996V29.4996L24.8 29.5996V29.5996H24.7H24.6V29.5996V29.5996L24.5 29.6996V29.6996L24.4 29.7996H24.3V29.7996H24.2V29.6996L24.3 29.5996V29.5996L24.4 29.6996V29.5996H24.5V29.4996V29.4996H24.6V29.4996H24.7V29.4996H24.6V29.3996V29.3996L24.7 29.2996V29.2996H24.8H24.9V29.1996H24.8V29.1996H24.7V29.2996L24.6 29.1996V29.1996V29.1996V29.1996L24.5 29.0996V29.0996V29.0996V29.0996V29.0996L24.6 28.9996V28.9996V28.9996L24.7 28.8996H24.6L24.7 28.7996V28.7996H24.6V28.6996V28.5996L24.5 28.4996H24.4V28.4996V28.3996H24.3L24.4 28.2996L24.3 28.0996L24.2 28.1996L24.3 28.2996V28.4996V28.4996L24.2 28.3996V28.4996V28.4996L24.3 28.5996V28.6996L24.2 28.7996V28.6996V28.5996V28.5996H24.1V28.5996V28.6996V28.6996V28.6996L24 28.7996V28.6996V28.5996H23.9V28.4996H23.8L23.9 28.5996V28.6996H23.8H23.9V28.7996V28.7996V28.7996L24 28.8996V28.8996V28.8996V28.9996L23.9 29.0996V29.0996H23.8V28.8996V28.8996V28.9996L23.7 28.8996V28.7996L23.6 28.6996V28.7996V28.8996V28.8996V28.8996V28.9996L23.7 29.0996H23.6L23.7 29.1996V29.1996V29.0996L23.8 29.1996V29.1996H23.9V29.1996V29.0996H24L24.1 28.9996V28.8996V28.7996V28.7996V28.7996L24.2 28.6996V28.7996V28.7996V28.8996L24.1 28.9996V28.9996V29.0996V29.1996H24L23.9 29.3996V29.4996V29.5996L23.8 29.6996H23.7H23.5H23.4L23.3 29.7996V29.7996L23.2 29.8996H23.1H23L22.9 29.9996H22.7H22.6L22.5 29.8996H22.4V29.9996V29.9996H22.3H22.2H22L21.8 29.8996H21.7H21.6L21.5 29.7996V29.7996V29.7996V29.6996V29.6996H21.7V29.6996V29.5996L21.8 29.4996V29.4996V29.4996V29.3996L21.9 29.2996H22V29.2996L22.1 29.1996V29.0996L22.2 28.8996L22.1 28.7996H22.2V28.5996V28.5996H22.3V28.3996V28.2996V28.1996H22.4V28.2996V28.2996V28.2996H22.5V28.2996V28.2996L22.4 28.1996H22.5V28.0996V27.9996V27.8996V27.8996V27.7996L22.4 27.6996H22.5V27.6996V27.6996L22.6 27.5996H22.7V27.5996H22.6V27.5996V27.4996L22.5 27.5996V27.4996V27.4996L22.6 27.3996H22.7V27.2996V27.2996L22.8 27.3996V27.2996H22.9V27.0996H23V26.9996V26.8996H22.8V26.7996V26.7996H22.9H23L23.1 26.6996V26.5996H23L22.9 26.4996V26.4996L22.8 26.3996L22.7 26.4996V26.3996V26.2996V26.2996V26.2996H22.6V26.3996V26.3996V26.4996L22.5 26.3996V26.4996V26.5996V26.5996V26.6996H22.4L22.3 26.7996H22.1V26.6996V26.5996V26.4996V26.4996V26.5996V26.5996H22V26.6996V26.6996L21.9 26.5996V26.5996L21.8 26.4996V26.4996V26.4996L21.9 26.5996V26.6996V26.6996H21.8V26.6996V26.7996V26.7996V26.6996L21.7 26.5996V26.5996V26.5996L21.6 26.4996V26.4996V26.5996L21.7 26.6996V26.7996H21.8V26.9996V26.8996L21.7 26.9996L21.9 27.0996V27.0996H21.8V27.0996H21.7L21.6 26.9996V26.8996V26.8996V26.8996L21.5 26.7996V26.7996L21.4 26.6996V26.6996V26.6996V26.5996L21.3 26.4996V26.5996L21.2 26.6996V26.6996H21.1V26.6996H21H20.9V26.7996V26.8996H21V26.9996H20.9V26.9996V26.9996V27.0996V27.0996L20.8 27.1996H20.7V27.2996V27.2996V27.3996V27.4996V27.4996L20.6 27.5996V27.6996V27.6996L20.5 27.7996V27.9996V27.9996V27.9996H20.4L20.5 27.8996V27.8996V27.7996L20.4 27.6996V27.6996H20.3V27.5996L20.2 27.6996H20.1L20 27.7996V27.7996V27.7996V27.8996L19.9 27.9996V27.9996V28.0996H20V28.1996L20.1 28.2996V28.2996H20.2V28.2996V28.4996V28.5996H20.3V28.5996V28.5996V28.6996H20.2V28.6996L20.3 28.7996V28.6996V28.7996V28.8996V28.8996V28.8996L20.4 28.9996L20.5 29.0996V29.1996H20.6L20.5 29.2996V29.2996L20.4 29.3996L20.3 29.4996V29.4996V29.6996V29.6996V29.7996L20.2 29.8996V30.0996L20.1 30.1996H20.2V30.2996V30.3996V30.3996V30.4996L20.3 30.5996H20.2H20.3V30.6996V30.6996V30.6996H20.2L20.3 30.7996H20.2V30.7996V30.7996V30.8996H20.3H20.2V30.9996V31.0996H20.1V30.9996V30.9996V30.8996L19.9 30.9996V30.9996V30.9996L19.8 31.0996V30.9996V30.9996V31.0996V31.0996V31.1996L19.7 31.0996V31.1996V31.1996H19.6H19.5V31.0996H19.4V30.9996L19.3 31.0996V31.1996H19.2L19.3 31.0996H19.2L19.3 30.9996H19.4V30.8996V30.7996L19.3 30.6996V30.5996V30.3996L19.2 30.2996V30.2996V30.0996H19.3L19.4 29.9996V29.8996H19.5V29.7996H19.6V29.6996L19.7 29.5996V29.5996V29.5996V29.4996L19.6 29.3996H19.5H19.4V29.3996V29.2996V29.2996L19.3 29.3996H19.4L19.3 29.4996V29.4996H19.2V29.5996H19.1V29.5996H19L18.9 29.3996H18.8V29.3996V29.3996H18.7H18.6L18.7 29.2996V29.2996L18.6 29.1996H18.5V29.1996H18.4H18.3L18.2 29.2996V29.2996L18.3 29.1996H18.4V29.0996L18.3 29.1996H18.2V29.2996V29.2996V29.1996V29.0996H18.1H18V29.0996H17.9V29.0996V29.0996H17.8H17.7V29.1996V29.2996L17.8 29.1996V29.2996L17.9 29.1996V29.2996H18V29.2996L18.1 29.3996H18.2V29.4996V29.4996V29.5996H18.3V29.4996L18.4 29.5996L18.5 29.6996V29.7996H18.6V29.7996L18.5 29.9996V30.0996H18.6V30.1996H18.7H18.6V30.2996H18.5V30.2996H18.4L18.3 30.1996V30.1996V30.0996H18.4L18.3 29.9996L18.2 29.8996V29.7996H18.1H18V29.7996V29.8996H17.9V29.8996V29.7996V29.7996L18 29.6996V29.6996L17.9 29.5996V29.5996V29.5996V29.5996L17.8 29.4996H17.7L17.6 29.5996L17.5 29.6996H17.6V29.7996H17.7V29.8996H17.6V29.9996H17.5L17.6 29.8996L17.5 29.7996V29.7996L17.4 29.6996V29.5996V29.5996V29.4996H17.1H16.9V29.5996H16.8V29.5996V29.4996H16.7H16.9V29.2996V29.2996V29.2996L16.8 29.1996V29.1996V29.2996V29.1996V29.2996V29.3996V29.3996V29.3996V29.4996L16.7 29.3996V29.3996V29.2996L16.5 29.1996H16.6L16.5 29.0996H16.4H16.3V29.0996L16.2 28.9996H16.1H16V29.0996V29.1996V29.1996L15.9 29.3996L16 29.4996V29.4996V29.5996V29.5996L16.1 29.6996H16L15.9 29.5996V29.5996V29.5996H15.8H15.7V29.5996H15.6V29.4996H15.5V29.4996V29.4996H15.4V29.4996V29.4996H15.3L15.2 29.3996V29.3996V29.3996V29.3996L15.1 29.2996H15L14.9 29.3996L14.8 29.4996V29.4996H14.9V29.6996V29.6996L14.8 29.7996H14.7V29.8996L14.6 29.7996V29.7996V29.7996H14.5V29.6996V29.6996V29.5996V29.5996V29.5996V29.4996V29.4996V29.3996V29.3996L14.4 29.2996L14.3 29.1996V29.2996V29.2996L14.2 29.3996H14.3V29.4996L14.2 29.5996H14.1H14L13.9 29.3996V29.3996V29.2996H13.8H13.6H13.4H13.3V29.3996V29.4996L13.2 29.5996H13.3L13.2 29.7996H13.1H13.2L13.1 29.8996V29.7996V29.6996V29.6996H13V29.6996H12.9V29.6996V29.6996H12.8V29.6996V29.7996L12.7 29.6996V29.6996V29.5996L12.6 29.6996H12.5V29.6996H12.4H12.3V29.5996V29.5996V29.5996H12.2V29.5996V29.4996V29.3996V29.3996H12.1V29.4996V29.4996H12V29.4996V29.4996V29.3996V29.3996V29.3996L12.1 29.2996V29.1996H12V29.1996V29.0996V29.0996H11.9V29.0996H11.8V28.9996V28.9996V28.8996V28.9996L11.9 28.8996V28.7996V28.7996V28.6996V28.5996L11.8 28.4996V28.3996H11.9L12 28.2996L11.9 28.1996L11.8 27.9996H11.7L11.6 27.8996H11.5V27.9996V27.9996H11.4L11.3 28.0996H11.2L11.1 28.1996H10.9L10.8 28.0996H10.7H10.6H10.4H10.3V28.0996L10.2 28.1996V28.1996L10.1 28.2996V28.2996L10 28.0996V28.0996L9.8 28.1996H9.6H9.5L9.3 28.2996H9.2V28.2996L9.1 28.3996V28.4996V28.4996L9 28.5996H9.1L9 28.6996V28.6996V28.7996V28.8996V28.9996V29.0996H8.9V28.9996V28.8996V28.7996H8.8V28.6996H8.7L8.6 28.5996H8.5H8.4H8.3H8.2V28.6996H8.1V28.6996H8V28.5996L7.9 28.4996V28.3996V28.3996V28.2996L7.8 28.1996V28.1996L7.9 28.0996H8H8.1V27.9996V27.9996H8.2L8.3 27.8996L8.4 27.9996H8.3H8.4V27.9996V27.9996H8.6H8.7H8.8H8.9V27.9996H9V27.8996V27.8996V27.7996H9.1L9 27.6996V27.6996V27.6996L8.9 27.5996V27.6996H8.8V27.5996H8.7L8.6 27.4996H8.5L8.6 27.5996V27.5996H8.5L8.4 27.4996H8.3H8.2H8.1V27.5996H8H7.9V27.6996V27.6996V27.6996L7.8 27.7996V27.8996H7.7V27.8996H7.6V27.9996V27.9996L7.5 27.8996V27.8996V27.8996V27.7996V27.7996L7.4 27.6996H7.3H7.1L7 27.7996H6.9V27.7996L6.7 27.8996V27.9996L6.6 28.0996V28.1996V28.2996H6.8V28.2996H6.9L7 28.3996V28.3996L7.1 28.4996L7.2 28.5996V28.5996V28.6996V28.6996V28.7996L7.1 28.8996V28.8996V28.8996H7H6.9V28.8996L6.8 28.9996V29.0996V29.1996H6.9V29.1996H7V29.1996L7.1 29.2996V29.3996V29.2996H7H6.9V29.1996H6.8V29.1996L6.7 29.2996V29.2996V29.2996L6.6 29.3996L6.5 29.2996V29.2996H6.4V29.2996V29.1996V29.1996H6.3L6.2 29.0996V29.0996H6.1L6.2 28.9996V28.8996V28.8996L6.1 28.7996H6L5.9 28.8996V28.8996V28.7996V28.7996V28.7996V28.6996V28.6996H5.8L5.9 28.5996H5.8V28.5996V28.5996L5.7 28.4996V28.5996H5.6V28.4996V28.4996V28.4996V28.3996H5.5V28.3996H5.4V28.3996L5.3 28.4996V28.4996V28.3996V28.3996V28.2996H5.2H5.3V28.1996V28.0996H5.2H5.1V28.0996H5V28.0996H4.9L5 27.9996H4.9L5 27.8996V27.7996H4.9H4.8V27.6996V27.6996H4.7H4.6V27.6996V27.5996V27.5996V27.5996L4.5 27.4996V27.5996L4.4 27.4996V27.4996V27.4996V27.4996V27.2996V27.1996L4.3 27.0996H4.2L4.1 26.9996H4L3.9 26.8996V26.7996L3.7 26.8996H3.6L3.5 26.9996V26.9996V27.0996V27.1996L3.4 27.2996V27.2996V27.2996L3.3 27.1996L3.2 27.2996V27.1996V27.1996V27.0996H3.1H3V27.0996L2.9 26.9996V26.8996V26.7996H2.8V26.7996V26.6996H2.6V26.7996H2.5V26.7996V26.7996H2.4V26.6996L2.3 26.5996V26.5996H2.2H2.1V26.6996V26.6996H2V26.5996L1.9 26.4996L1.8 26.5996V26.4996V26.3996H1.7V26.2996H1.6L1.5 26.3996H1.4V26.3996L1.3 26.4996V26.4996H1.2V26.4996H1.1H1L0.9 26.5996H0.8V26.4996V26.3996V26.2996H0.9V26.1996V26.0996V26.0996H0.8H0.7V26.1996L0.6 26.0996L0.4 26.1996V26.1996H0.3V26.0996H0.4V25.9996H0.5H0.4V25.8996V25.8996L0.3 25.7996L0.4 25.6996L0.3 25.5996V25.5996L0.1 25.6996L0.2 25.5996V25.5996V25.5996V25.4996H0.3H0.2H0.1V25.4996L0.2 25.3996V25.3996V25.3996V25.2996V25.2996L0.3 25.1996V25.1996V25.0996V24.9996H0.4V24.8996H0.3V24.8996H0.2V24.7996V24.7996L0.1 24.5996V24.5996V24.4996L0 24.3996L0.1 24.1996V24.0996L0 23.9996V23.9996V23.8996H0.1V23.8996H0.2V23.6996H0.3L0.4 23.5996H0.5V23.4996V23.2996L0.6 23.1996V23.0996L0.7 22.9996V22.9996H0.8L1 22.8996L1.1 22.7996V22.7996V22.8996H1.2V22.9996H1.3H1.4V22.8996H1.5V22.8996L1.6 23.0996V23.0996V23.0996V23.1996L1.5 23.3996V23.4996V23.4996V23.5996V23.6996L1.7 23.7996H1.8V23.7996L1.9 23.8996H2V23.9996L2.1 24.0996V24.1996V24.1996V24.3996V24.3996H2.3V24.2996V24.2996L2.4 24.1996V24.1996V24.0996L2.6 23.8996V23.7996V23.7996V23.7996V23.6996L2.7 23.7996V23.8996V23.8996L2.6 23.9996V23.9996L2.7 24.0996L2.6 24.1996H2.5V24.1996V24.1996V24.3996V24.2996H2.7L2.8 24.3996L2.9 24.4996V24.5996V24.5996L3 24.6996H3.1L3.2 24.7996H3.3H3.4V24.5996V24.5996L3.5 24.4996H3.8V24.5996V24.5996L3.7 24.6996V24.6996H3.8L3.9 24.5996H3.8V24.5996H3.9H4V24.4996L4.1 24.3996L4.2 24.2996V24.1996V24.0996V23.9996L4.3 23.8996V23.8996L4.4 23.7996V23.6996H4.5H4.6H4.7H4.8V23.5996L4.9 23.4996H5L5.1 23.3996V23.2996L5 23.1996H5.1V23.2996V23.2996H5.2H5.3H5.4V23.2996L5.5 23.3996H5.6H5.7V23.2996V23.1996V23.1996H5.8V23.1996H5.9L6 23.2996V23.2996L6.1 23.3996L6.2 23.4996L6.3 23.5996H6.4V23.6996L6.5 23.7996V23.7996V23.8996H6.6V23.8996H6.7H6.8V23.8996Z" fill="#7BEA05"/>
</svg>
